<?xml version="1.0" standalone="no"?>
<!DOCTYPE svg PUBLIC "-//W3C//DTD SVG 20010904//EN"
 "http://www.w3.org/TR/2001/REC-SVG-20010904/DTD/svg10.dtd">
<svg version="1.0" xmlns="http://www.w3.org/2000/svg"
 width="128.000000pt" height="128.000000pt" viewBox="0 0 128.000000 128.000000"
 preserveAspectRatio="xMidYMid meet">
<metadata>
Created by potrace 1.11, written by Peter Selinger 2001-2013
</metadata>
<g transform="translate(0.000000,128.000000) scale(0.100000,-0.100000)"
fill="#000000" stroke="none">
<path d="M340 1158 c-36 -17 -92 -43 -125 -58 l-61 -27 -72 27 c-40 16 -72 25
-72 22 0 -4 12 -35 26 -69 l27 -63 -31 -212 -31 -211 52 -145 52 -144 250 -94
c137 -51 250 -92 252 -91 1 1 -77 60 -173 131 -151 111 -172 129 -159 142 7 8
24 32 36 53 18 33 36 46 101 76 43 19 76 40 73 45 -3 6 -4 10 -2 10 3 0 36
-50 73 -110 38 -61 71 -110 74 -110 3 0 33 53 68 118 52 97 72 125 112 155
l48 36 16 -23 c30 -47 111 -41 135 10 16 36 14 58 -9 86 l-19 25 37 34 c20 19
51 47 68 62 l31 28 37 -103 37 -104 -85 -145 -85 -144 -181 -133 c-99 -73
-180 -135 -180 -137 0 -3 489 180 494 186 2 2 25 70 50 151 l47 148 -26 172
-27 173 40 103 c22 56 39 102 38 102 -1 0 -41 -13 -88 -29 -47 -16 -90 -25
-94 -21 -5 4 -62 31 -127 59 l-118 51 -222 -1 -222 -1 -65 -30z m-74 -449
c-24 -35 -20 -67 14 -101 26 -25 36 -29 62 -24 18 3 40 14 50 23 17 15 19 15
38 -2 19 -17 19 -19 3 -37 -21 -24 -87 -41 -126 -33 -44 10 -75 31 -97 68 -31
50 -25 101 18 150 15 17 17 17 35 -2 18 -18 18 -21 3 -42z m-180 -34 c-4 -14
-2 -34 4 -45 6 -11 8 -20 6 -20 -3 0 -10 9 -16 20 -10 18 -4 70 7 70 3 0 2
-11 -1 -25z m144 -275 c6 -11 8 -20 6 -20 -3 0 -10 9 -16 20 -6 11 -8 20 -6
20 3 0 10 -9 16 -20z"/>
</g>
</svg>
