<?xml version="1.0" encoding="utf-8"?>
<!-- Generator: Adobe Illustrator 19.2.1, SVG Export Plug-In . SVG Version: 6.00 Build 0)  -->
<svg version="1.1" id="Layer_1" xmlns="http://www.w3.org/2000/svg" xmlns:xlink="http://www.w3.org/1999/xlink" x="0px" y="0px"
	 viewBox="0 0 170 170" style="enable-background:new 0 0 170 170;" xml:space="preserve">
<style type="text/css">
	.st0{fill-rule:evenodd;clip-rule:evenodd;fill:#1EA361;}
	.st1{fill-rule:evenodd;clip-rule:evenodd;fill:#FEDB43;}
	.st2{fill-rule:evenodd;clip-rule:evenodd;fill:#5384C4;}
	.st3{fill-rule:evenodd;clip-rule:evenodd;fill:#FFFFFF;}
	.st4{fill-rule:evenodd;clip-rule:evenodd;fill:#C2C2C1;}
	.st5{fill:#F0EFEF;}
	.st6{fill:#DC4B3E;}
	.st7{fill:#802D28;}
</style>
<g>
	<path class="st0" d="M0.1,154.7v-121c0-7,5.8-12.7,13-12.7h123L0.1,154.7z"/>
	<path class="st1" d="M0.1,157.3v-2.5L136.1,21h2.6c7.2,0,13,5.7,13,12.7v2.5L15.6,170h-2.6C5.9,170,0.1,164.3,0.1,157.3z"/>
	<polygon class="st2" points="15.6,170 75.9,110.8 136.1,170 	"/>
	<path class="st3" d="M136.1,170l-61.1-60.1l15.5-15.3l61.1,60.1v2.5c0,7-5.8,12.7-13,12.7H136.1z"/>
	<polygon class="st4" points="151.6,154.7 91.4,95.5 151.6,36.3 	"/>
	<path class="st5" d="M27.1,37.5c7.7-3.5,17.4-2.1,23.6,3.6c-2,2-4,3.9-6,5.8c-6.3-6.1-18-3.2-21,4.9c-3.8,8,2.5,18.4,11.6,18.5
		c5.9,0.7,11.8-3.2,13-9c-4.1,0-8.2,0-12.4,0c-0.1-2.5-0.1-5-0.1-7.5c6.9,0.2,13.9-0.4,20.7,0.3c0.5,5,0.2,10.2-2.5,14.6
		c-4.2,7.8-14.3,11.2-22.8,9.2C20.9,75.7,13,65.1,14.5,54.6C15.2,47.2,20.3,40.5,27.1,37.5z"/>
	<g>
		<g>
			<g>
				<path class="st6" d="M125.2,0h4.9c12.3,0.7,24.3,6.6,31.7,16.3c4.9,6.1,7.6,13.7,8.2,21.5v2.9c-0.3,15-10,27.3-18.5,38.9
					c-9.5,13.2-18.2,27.5-20.7,43.7c-0.6,2.7,0.1,6.6-3.2,7.8c-0.8-0.6-1.7-1.1-2.3-1.9c-1-9.1-3.3-18-7.2-26.3
					c-4.5-9.7-10.7-18.4-17-26.9c-3.8-5.1-7.5-10.4-10.5-16.1c-4.7-8.5-6.5-18.5-4.5-28c1.6-7.5,5.6-14.4,11.1-19.8
					C104.7,5,114.8,0.6,125.2,0z M124.2,26.4c-5.8,1.3-10.7,6.3-11.2,12.3c-0.6,5.5,2.7,11.1,7.7,13.6c5.5,2.8,12.6,2,17.2-2.1
					c4.3-3.7,5.8-10.1,3.6-15.3C138.8,28.4,131,24.7,124.2,26.4z"/>
			</g>
		</g>
		<g>
			<path class="st7" d="M124.2,26.4c6.8-1.7,14.6,2,17.3,8.4c2.2,5.2,0.7,11.6-3.6,15.3c-4.6,4.1-11.7,5-17.2,2.1
				c-5-2.4-8.3-8-7.7-13.6C113.5,32.7,118.4,27.7,124.2,26.4z"/>
		</g>
	</g>
</g>
</svg>
