<?xml version="1.0" encoding="utf-8"?>
<!-- Generator: Adobe Illustrator 16.0.0, SVG Export Plug-In . SVG Version: 6.00 Build 0)  -->
<!DOCTYPE svg PUBLIC "-//W3C//DTD SVG 1.1//EN" "http://www.w3.org/Graphics/SVG/1.1/DTD/svg11.dtd">
<svg version="1.1" id="Layer_1" xmlns="http://www.w3.org/2000/svg" xmlns:xlink="http://www.w3.org/1999/xlink" x="0px" y="0px"
	 width="841.891px" height="595.281px" viewBox="0 0 841.891 595.281" enable-background="new 0 0 841.891 595.281"
	 xml:space="preserve">
<title>LAP_Logo</title>
<rect x="0" y="87.168" width="841.891" height="420.945"/>
<path d="M138.849,391.657v-62.073h16.752v48.471h45.322v13.603H138.849z"/>
<path d="M264.185,379.926h-34.571l-5.939,11.88h-18.712l32.493-62.073h18.711l32.373,62.073h-18.711L264.185,379.926z
	 M235.584,367.807h22.662l-11.286-22.869L235.584,367.807z"/>
<path d="M364.929,350.79c0.027,2.907-0.435,5.799-1.366,8.554c-0.879,2.571-2.379,4.887-4.365,6.742
	c-2.241,2.017-4.897,3.517-7.782,4.396c-3.773,1.135-7.703,1.666-11.643,1.573h-27.829v19.603h-16.751v-62.073h44.551
	c3.938-0.094,7.865,0.428,11.643,1.544c2.887,0.872,5.544,2.373,7.781,4.396c1.982,1.848,3.481,4.152,4.366,6.713
	C364.478,344.988,364.951,347.88,364.929,350.79z M348.001,351.056c0.022-1.265-0.188-2.523-0.624-3.712
	c-0.404-1.033-1.107-1.923-2.02-2.555c-1.106-0.728-2.35-1.223-3.653-1.455c-1.83-0.346-3.691-0.505-5.554-0.476h-24.206v15.979
	h24.117c1.858,0.023,3.716-0.105,5.554-0.387c1.295-0.179,2.538-0.624,3.653-1.307c0.903-0.576,1.608-1.416,2.02-2.405
	c0.455-1.174,0.677-2.425,0.653-3.684l0,0H348.001z"/>
<path d="M378.8,391.657v-62.073h16.662v62.073H378.8z"/>
<path d="M431.845,353.284l34.333-23.76h22.454l-41.789,29.7l44.551,32.284h-24.443l-35.136-25.78v25.78h-16.84v-62.074h16.84v23.761
	L431.845,353.284z"/>
<path d="M572.061,379.51c-1.7,2.914-4.072,5.379-6.921,7.188c-3.535,2.241-7.42,3.877-11.493,4.842
	c-10.62,2.379-21.635,2.379-32.255,0c-4.095-0.957-8-2.593-11.554-4.842c-2.847-1.81-5.22-4.273-6.92-7.188
	c-1.548-2.713-2.347-5.787-2.317-8.91v-40.986h16.633v35.136c-0.013,2.008,0.258,4.007,0.802,5.94
	c0.526,1.864,1.554,3.549,2.97,4.87c1.77,1.557,3.873,2.685,6.148,3.297c3.348,0.903,6.81,1.314,10.276,1.218
	c3.446,0.096,6.889-0.314,10.217-1.218c2.265-0.618,4.357-1.745,6.118-3.297c1.423-1.316,2.451-3.003,2.97-4.87
	c0.527-1.937,0.787-3.935,0.772-5.94v-35.136h16.751v41.135C574.299,373.81,573.542,376.83,572.061,379.51z"/>
<path d="M665.736,360.591c0.053,3.577-0.387,7.146-1.307,10.604c-0.776,2.867-2.021,5.586-3.683,8.049
	c-1.541,2.297-3.471,4.307-5.703,5.939c-2.27,1.623-4.76,2.913-7.395,3.832c-2.89,1.009-5.876,1.716-8.91,2.108
	c-3.248,0.444-6.523,0.663-9.802,0.653h-39.323v-62.074h39.294c3.278-0.009,6.553,0.21,9.801,0.653
	c3.034,0.398,6.02,1.104,8.91,2.109c2.641,0.927,5.14,2.216,7.425,3.831c2.241,1.623,4.173,3.635,5.703,5.94
	c1.656,2.465,2.9,5.184,3.683,8.049C665.327,353.645,665.767,357.112,665.736,360.591z M648.837,360.591
	c0.053-2.641-0.339-5.271-1.158-7.781c-0.72-2.116-2.003-3.996-3.713-5.436c-1.95-1.553-4.224-2.648-6.652-3.208
	c-3.289-0.771-6.661-1.131-10.039-1.068h-20.79v35.046h20.79c3.378,0.063,6.75-0.296,10.039-1.069
	c2.436-0.556,4.712-1.663,6.652-3.237c1.708-1.466,2.989-3.363,3.713-5.494c0.785-2.507,1.146-5.127,1.069-7.752l0,0H648.837z"/>
<path d="M175.144,416.389v12.622h-4.366v-12.622h-6.831v-3.505h18.058v3.505H175.144z"/>
<path d="M196.944,425.982h-8.91l-1.515,2.971h-4.99l8.436-16.128h4.871l8.435,16.128h-4.812L196.944,425.982z M189.519,422.834
	h5.939l-2.97-5.939L189.519,422.834z"/>
<path d="M210.309,429.011h-4.366v-16.127h10.93c1.002-0.021,2.002,0.099,2.971,0.356c0.729,0.2,1.408,0.555,1.989,1.039
	c0.508,0.429,0.896,0.981,1.129,1.604c0.242,0.676,0.363,1.39,0.356,2.108c0.009,0.607-0.092,1.211-0.297,1.782
	c-0.175,0.479-0.437,0.922-0.772,1.307c-0.325,0.365-0.706,0.676-1.129,0.921c-0.434,0.252-0.892,0.461-1.366,0.624l5.287,6.385
	h-5.108l-4.871-5.939h-4.752V429.011L210.309,429.011z M218.922,417.964c0.047-0.266,0.047-0.537,0-0.802
	c-0.079-0.218-0.225-0.405-0.416-0.535c-0.245-0.151-0.518-0.252-0.802-0.297c-0.425-0.037-0.853-0.037-1.277,0h-5.94v3.445h5.94
	c0.425,0.038,0.853,0.038,1.277,0c0.284-0.045,0.557-0.146,0.802-0.297c0.191-0.13,0.337-0.317,0.416-0.535
	c0.065-0.313,0.065-0.637,0-0.95l0,0V417.964z"/>
<path d="M232.525,419.033l8.91-6.148h5.94l-10.871,7.722l11.584,8.405h-6.356l-9.118-6.712v6.712h-4.455v-16.127h4.366V419.033
	L232.525,419.033z"/>
<path d="M261.364,429.011h-5.078l-8.168-16.127h4.871l5.94,12.147l5.939-12.147h4.871L261.364,429.011z"/>
<path d="M284.5,425.982h-8.91l-1.515,2.971h-4.93l8.435-16.128h4.931l8.435,16.128h-4.871L284.5,425.982z M277.075,422.834h5.94
	l-2.971-5.939L277.075,422.834z"/>
<path d="M297.896,429.011h-4.366v-16.127h10.93c1.002-0.021,2.002,0.099,2.97,0.356c0.73,0.2,1.409,0.555,1.99,1.039
	c0.508,0.429,0.896,0.981,1.129,1.604c0.242,0.676,0.362,1.39,0.356,2.108c0.009,0.607-0.092,1.211-0.297,1.782
	c-0.176,0.479-0.438,0.922-0.772,1.307c-0.325,0.365-0.706,0.676-1.129,0.921c-0.434,0.252-0.892,0.461-1.366,0.624l5.287,6.385
	h-5.108l-4.871-5.939h-4.752V429.011L297.896,429.011z M306.508,417.964c0.048-0.266,0.048-0.537,0-0.802
	c-0.078-0.218-0.224-0.405-0.415-0.535c-0.245-0.151-0.518-0.252-0.802-0.297c-0.426-0.037-0.853-0.037-1.277,0h-5.94v3.445h5.94
	c0.425,0.038,0.853,0.038,1.277,0c0.284-0.045,0.557-0.146,0.802-0.297c0.191-0.13,0.337-0.317,0.415-0.535
	c0.066-0.313,0.066-0.637,0-0.95l0,0V417.964z"/>
<path d="M328.695,425.982h-8.91l-1.515,2.971h-4.871l8.436-16.128h4.871l8.435,16.128h-4.871L328.695,425.982z M321.121,422.834
	h5.94l-2.971-5.939L321.121,422.834z"/>
<path d="M350.822,425.982h-8.91l-1.515,2.971h-4.871l8.436-16.128h4.87l8.436,16.128h-4.871L350.822,425.982z M343.397,422.834
	h5.939l-2.97-5.939L343.397,422.834z"/>
<path d="M364.038,429.011h-4.307v-16.127h10.93c1.002-0.021,2.002,0.099,2.97,0.356c0.73,0.2,1.409,0.555,1.99,1.039
	c0.508,0.429,0.897,0.981,1.129,1.604c0.242,0.676,0.363,1.39,0.356,2.108c0.009,0.607-0.092,1.211-0.297,1.782
	c-0.175,0.479-0.438,0.922-0.772,1.307c-0.325,0.365-0.706,0.676-1.129,0.921c-0.434,0.252-0.892,0.461-1.366,0.624l5.287,6.385
	h-5.139l-4.87-5.939h-4.753v5.939H364.038z M372.652,417.964c0.047-0.266,0.047-0.537,0-0.802c-0.079-0.218-0.225-0.405-0.416-0.535
	c-0.245-0.151-0.518-0.252-0.802-0.297c-0.425-0.037-0.853-0.037-1.277,0h-5.939v3.445h5.939c0.425,0.038,0.853,0.038,1.277,0
	c0.284-0.045,0.557-0.146,0.802-0.297c0.191-0.13,0.337-0.317,0.416-0.535c0.065-0.313,0.065-0.637,0-0.95l0,0V417.964z"/>
<path d="M381.889,429.011v-16.127h16.454v3.445h-11.881v2.673h11.257v3.445h-11.257v3.148h11.881v3.445h-16.454V429.011z"/>
<path d="M417.826,429.011l-10.871-11.078v11.078h-4.365v-16.127h4.663l10.899,11.138v-11.138h4.337v16.127H417.826z"/>
<path d="M447.349,420.933c0.018,0.932-0.092,1.86-0.328,2.762c-0.197,0.751-0.52,1.464-0.949,2.109
	c-0.404,0.587-0.906,1.099-1.486,1.515c-0.592,0.427-1.242,0.767-1.93,1.01c-0.742,0.255-1.508,0.434-2.287,0.534
	c-0.846,0.118-1.699,0.178-2.555,0.179h-10.246v-16.128h10.217c0.855,0,1.709,0.06,2.555,0.179c0.777,0.101,1.545,0.279,2.287,0.534
	c0.686,0.236,1.334,0.566,1.93,0.98c0.582,0.412,1.086,0.925,1.484,1.515c0.43,0.646,0.75,1.359,0.951,2.108
	C447.234,419.111,447.353,420.02,447.349,420.933z M442.953,420.933c0.014-0.686-0.086-1.367-0.297-2.02
	c-0.18-0.554-0.51-1.047-0.951-1.426c-0.504-0.402-1.094-0.686-1.723-0.831c-0.855-0.198-1.734-0.288-2.613-0.268h-5.406v9.118
	h5.406c0.879,0.02,1.758-0.07,2.613-0.268c0.631-0.143,1.219-0.427,1.723-0.832c0.438-0.382,0.766-0.874,0.951-1.425
	c0.193-0.665,0.273-1.358,0.236-2.05l0,0H442.953z"/>
<path d="M469.625,425.864c-0.438,0.756-1.049,1.397-1.783,1.871c-0.914,0.577-1.918,0.998-2.971,1.247
	c-2.758,0.616-5.617,0.616-8.375,0c-1.053-0.248-2.057-0.67-2.971-1.247c-0.734-0.474-1.344-1.115-1.781-1.871
	c-0.393-0.698-0.598-1.486-0.594-2.287v-10.692h4.336v9.147c-0.004,0.522,0.066,1.042,0.209,1.545
	c0.139,0.479,0.404,0.909,0.771,1.247c0.461,0.406,1.01,0.701,1.604,0.861c0.871,0.238,1.771,0.349,2.674,0.327
	c0.893,0.021,1.783-0.09,2.643-0.327c0.594-0.16,1.143-0.455,1.604-0.861c0.367-0.338,0.635-0.769,0.773-1.247
	c0.139-0.503,0.209-1.022,0.207-1.545v-9.147h4.365v10.841C470.279,424.486,470.035,425.22,469.625,425.864z"/>
<path d="M490.146,417.428l-1.217-0.505c-0.555-0.198-1.119-0.376-1.693-0.534c-0.686-0.177-1.379-0.315-2.078-0.416
	c-0.758-0.117-1.521-0.177-2.287-0.178h-1.605l-1.127,0.148l-0.713,0.208l-0.416,0.237c-0.082,0.072-0.145,0.164-0.178,0.268
	c-0.041,0.329,0.094,0.655,0.355,0.861c0.291,0.206,0.611,0.366,0.951,0.475l1.365,0.386l1.723,0.387l1.871,0.416
	c0.633,0.143,1.258,0.321,1.871,0.534c0.59,0.197,1.166,0.436,1.723,0.713c0.516,0.254,0.994,0.573,1.426,0.95
	c0.395,0.351,0.717,0.774,0.951,1.248c0.242,0.499,0.365,1.048,0.355,1.604c0.018,0.687-0.125,1.367-0.416,1.99
	c-0.264,0.537-0.639,1.013-1.098,1.396c-0.48,0.395-1.021,0.706-1.605,0.921c-0.615,0.234-1.252,0.413-1.9,0.534
	c-0.666,0.123-1.342,0.202-2.02,0.238h-1.93c-1.484,0.012-2.967-0.118-4.426-0.387c-1.223-0.226-2.426-0.553-3.594-0.979v-3.861
	c1.16,0.627,2.398,1.096,3.684,1.396c1.439,0.344,2.914,0.514,4.395,0.505c0.752,0.061,1.506,0.061,2.258,0
	c0.471-0.069,0.93-0.199,1.365-0.386c0.27-0.103,0.506-0.277,0.684-0.505c0.107-0.148,0.168-0.323,0.178-0.505
	c-0.004-0.271-0.137-0.524-0.355-0.684c-0.287-0.22-0.607-0.39-0.951-0.505c-0.467-0.157-0.943-0.286-1.426-0.386l-1.723-0.356
	l-1.871-0.386c-0.633-0.139-1.256-0.308-1.871-0.505c-0.588-0.189-1.164-0.418-1.723-0.684c-0.512-0.231-0.992-0.531-1.426-0.891
	c-0.393-0.34-0.717-0.754-0.949-1.218c-0.246-0.498-0.369-1.049-0.357-1.604c-0.012-0.635,0.119-1.265,0.387-1.841
	c0.242-0.501,0.586-0.946,1.01-1.307c0.443-0.376,0.945-0.677,1.484-0.892c0.576-0.234,1.174-0.413,1.783-0.534
	c0.617-0.129,1.242-0.218,1.871-0.268h3.742l1.961,0.268l1.871,0.386l1.662,0.476v3.771H490.146z"/>
<path d="M495.611,429.011v-16.127h16.336v3.445h-11.881v2.673h11.139v3.445h-11.258v3.148h11.881v3.445h-16.217V429.011z"/>
<path d="M529.738,419.033l8.91-6.148h5.939l-10.871,7.722l11.584,8.405h-6.355l-9.148-6.712v6.712h-4.365v-16.127h4.365
	L529.738,419.033z"/>
<path d="M547.736,429.011v-16.127h4.365v12.593h11.881v3.534H547.736L547.736,429.011z"/>
<path d="M585.783,425.864c-0.438,0.757-1.047,1.398-1.783,1.871c-0.914,0.576-1.918,0.998-2.969,1.247
	c-2.758,0.616-5.619,0.616-8.377,0c-1.051-0.249-2.055-0.67-2.969-1.247c-0.736-0.473-1.348-1.114-1.783-1.871
	c-0.395-0.697-0.6-1.486-0.594-2.287v-10.692h4.336v9.147c-0.002,0.522,0.066,1.042,0.209,1.545
	c0.139,0.479,0.406,0.909,0.771,1.247c0.461,0.406,1.01,0.701,1.604,0.861c0.871,0.238,1.771,0.349,2.674,0.327
	c0.893,0.021,1.783-0.09,2.643-0.327c0.594-0.16,1.143-0.455,1.604-0.861c0.369-0.337,0.635-0.769,0.773-1.247
	c0.139-0.503,0.209-1.022,0.207-1.545v-9.147h4.367v10.841C586.439,424.486,586.195,425.221,585.783,425.864z"/>
<path d="M609.72,424.587c0.016,0.554-0.064,1.106-0.236,1.634c-0.15,0.436-0.383,0.839-0.684,1.188
	c-0.301,0.335-0.664,0.607-1.07,0.802c-0.434,0.221-0.893,0.391-1.365,0.505c-0.527,0.122-1.064,0.201-1.604,0.238h-13.365v-16.128
	h12.889c0.451,0.034,0.898,0.104,1.338,0.208c0.412,0.102,0.811,0.251,1.188,0.445c0.748,0.382,1.313,1.044,1.574,1.842
	c0.164,0.487,0.244,1,0.238,1.515c0.049,0.897-0.225,1.783-0.773,2.495c-0.645,0.678-1.506,1.108-2.436,1.218
	c0.686,0.035,1.363,0.155,2.02,0.356c0.502,0.15,0.967,0.403,1.367,0.742c0.346,0.319,0.609,0.717,0.771,1.158
	C609.734,423.384,609.785,423.988,609.72,424.587z M604.285,417.785c0.033-0.196,0.033-0.397,0-0.594
	c-0.072-0.188-0.195-0.353-0.355-0.476c-0.193-0.151-0.416-0.263-0.654-0.326c-0.354-0.05-0.713-0.05-1.068,0h-6.416v2.97h6.416
	c0.355,0.046,0.715,0.046,1.068,0c0.238-0.063,0.461-0.175,0.654-0.326c0.162-0.121,0.287-0.286,0.355-0.476
	C604.34,418.302,604.34,418.04,604.285,417.785z M605.295,424.171c0.018-0.308-0.043-0.614-0.178-0.891
	c-0.137-0.229-0.346-0.406-0.594-0.505c-0.33-0.137-0.682-0.218-1.039-0.238h-7.813v3.416h7.813
	c0.357-0.016,0.709-0.097,1.039-0.238c0.252-0.107,0.461-0.296,0.594-0.534c0.174-0.339,0.236-0.723,0.178-1.099l0,0V424.171z"/>
<path d="M613.672,429.011v-16.127h4.455v16.127H613.672z"/>
<path d="M112.238,252.837c-0.041,5.139,0.467,10.266,1.515,15.296c1,4.645,2.556,9.152,4.634,13.425
	c2.179,4.43,4.827,8.611,7.9,12.475c3.513,4.403,7.313,8.571,11.375,12.474l-18.414,19.84c-5.333-4.239-10.301-8.918-14.851-13.988
	c-4.488-4.994-8.376-10.496-11.583-16.396c-3.334-6.178-5.869-12.755-7.544-19.572c-3.563-15.51-3.563-31.625,0-47.135
	c1.58-6.804,4.016-13.38,7.247-19.572c3.199-5.895,7.088-11.388,11.583-16.365c4.571-5.067,9.537-9.765,14.85-14.048l18.444,19.869
	c-4.063,3.902-7.862,8.07-11.375,12.475c-3.073,3.862-5.722,8.045-7.9,12.474c-2.078,4.272-3.634,8.78-4.634,13.425
	C112.525,242.561,112.107,247.699,112.238,252.837z"/>
<path d="M173.183,313.783V191.327h33.086v95.636h89.398v26.73L173.183,313.783z"/>
<path d="M420.499,290.616h-68.311l-11.494,23.167h-36.858L367.9,191.327h36.888l64.064,122.456h-36.858L420.499,290.616z
	 M364.068,266.855h44.759l-22.275-45.233L364.068,266.855z"/>
<path d="M626.561,233.116c0.063,5.743-0.842,11.456-2.673,16.899c-1.727,5.121-4.696,9.733-8.643,13.425
	c-4.43,3.991-9.682,6.962-15.385,8.702c-7.451,2.243-15.209,3.295-22.988,3.118h-54.857v38.611h-33.057V191.327h87.974
	c7.77-0.209,15.525,0.793,22.987,2.971c5.704,1.709,10.958,4.66,15.385,8.643c3.912,3.645,6.869,8.192,8.613,13.246
	C625.75,221.639,626.643,227.364,626.561,233.116z M593.148,233.65c0.057-2.51-0.356-5.008-1.218-7.365
	c-0.784-2.039-2.159-3.798-3.95-5.049c-2.178-1.473-4.634-2.483-7.217-2.971c-3.612-0.676-7.285-0.984-10.96-0.921h-47.788v31.542
	h47.759c3.667,0.054,7.333-0.194,10.959-0.742c2.559-0.354,5.016-1.233,7.218-2.584c1.777-1.149,3.157-2.819,3.95-4.781
	c0.846-2.249,1.259-4.638,1.218-7.039l0,0L593.148,233.65z"/>
<path d="M676.577,252.837c0.04-5.138-0.468-10.266-1.515-15.296c-1.002-4.644-2.558-9.15-4.633-13.424
	c-2.181-4.429-4.829-8.61-7.9-12.475c-3.514-4.404-7.313-8.571-11.376-12.474l11.138-12.029v-0.178l7.307-7.663
	c5.327,4.028,10.225,8.597,14.612,13.633c3.273,3.723,6.253,7.695,8.91,11.88c2.702,4.219,5,8.685,6.861,13.336
	c1.965,4.921,3.476,10.011,4.515,15.206c1.137,5.725,1.754,11.54,1.841,17.375v2.228c0.03,6.124-0.496,12.237-1.574,18.266
	c-0.976,5.404-2.458,10.704-4.425,15.83c-1.851,4.796-4.179,9.393-6.95,13.723c-2.741,4.261-5.81,8.303-9.178,12.088
	c-1.986,2.265-4.088,4.425-6.296,6.475c-2.218,1.979-4.436,3.96-6.653,5.94l-0.831,0.534c-0.312,0.207-0.6,0.446-0.861,0.713
	l-7.307-7.663v-0.178l-11.138-12.029c4.062-3.903,7.862-8.07,11.375-12.474c3.072-3.864,5.721-8.046,7.9-12.475
	c2.076-4.273,3.632-8.78,4.634-13.425C676.1,263.204,676.618,258.025,676.577,252.837z"/>
<path d="M751.868,331.752h-27.324l7.306-50.165h32.879L751.868,331.752z M731.909,257.054v-32.076h33.77v32.076H731.909z"/>
</svg>
