<svg id="Layer_1" data-name="Layer 1" xmlns="http://www.w3.org/2000/svg" viewBox="0 0 283.46 141.73"><defs><style>.cls-1{fill:#fff;}.cls-2{fill:#1a181b;}.cls-3{fill:#f0941d;}</style></defs><title>LAP_Logo</title><rect class="cls-1" width="283.46" height="141.73"/><path class="cls-2" d="M265.6,194.17v-20.9h5.64v16.32H286.5v4.58H265.6Z" transform="translate(-218.85 -91.65)"/><path class="cls-2" d="M307.8,190.22H296.16l-2,4h-6.3l10.94-20.9h6.3L316,194.22h-6.3Zm-9.63-4.08h7.63l-3.8-7.7Z" transform="translate(-218.85 -91.65)"/><path class="cls-2" d="M341.72,180.41a8.74,8.74,0,0,1-.46,2.88,5.57,5.57,0,0,1-1.47,2.27,6.94,6.94,0,0,1-2.62,1.48,12.59,12.59,0,0,1-3.92.53h-9.37v6.6h-5.64v-20.9h15a12.77,12.77,0,0,1,3.92.52,6.87,6.87,0,0,1,2.62,1.48,5.58,5.58,0,0,1,1.47,2.26A8.68,8.68,0,0,1,341.72,180.41Zm-5.7.09a3.45,3.45,0,0,0-.21-1.25,1.88,1.88,0,0,0-.68-0.86,3.29,3.29,0,0,0-1.23-.49,9.29,9.29,0,0,0-1.87-.16h-8.15v5.38H332a11.39,11.39,0,0,0,1.87-.13,3.19,3.19,0,0,0,1.23-.44,1.76,1.76,0,0,0,.68-0.81,3.26,3.26,0,0,0,.22-1.24h0Z" transform="translate(-218.85 -91.65)"/><path class="cls-2" d="M346.39,194.17v-20.9H352v20.9h-5.61Z" transform="translate(-218.85 -91.65)"/><path class="cls-2" d="M364.25,181.25l11.56-8h7.56l-14.07,10,15,10.87h-8.23l-11.83-8.68v8.68h-5.67v-20.9h5.67v8Z" transform="translate(-218.85 -91.65)"/><path class="cls-2" d="M411.46,190.08a7.11,7.11,0,0,1-2.33,2.42,12.69,12.69,0,0,1-3.87,1.63,24.84,24.84,0,0,1-10.86,0,12.66,12.66,0,0,1-3.89-1.63,7.12,7.12,0,0,1-2.33-2.42,5.94,5.94,0,0,1-.78-3v-13.8H393v11.83a7.22,7.22,0,0,0,.27,2,3.57,3.57,0,0,0,1,1.64,5.17,5.17,0,0,0,2.07,1.11,12,12,0,0,0,3.46.41,11.87,11.87,0,0,0,3.44-.41,5.18,5.18,0,0,0,2.06-1.11,3.52,3.52,0,0,0,1-1.64,7.41,7.41,0,0,0,.26-2V173.28h5.64v13.85A5.94,5.94,0,0,1,411.46,190.08Z" transform="translate(-218.85 -91.65)"/><path class="cls-2" d="M443,183.71a13.13,13.13,0,0,1-.44,3.57,9.09,9.09,0,0,1-1.24,2.71,8,8,0,0,1-1.92,2,9.87,9.87,0,0,1-2.49,1.29,14.88,14.88,0,0,1-3,.71,23.82,23.82,0,0,1-3.3.22H417.37v-20.9H430.6a23.9,23.9,0,0,1,3.3.22,15.13,15.13,0,0,1,3,.71,10.17,10.17,0,0,1,2.5,1.29,7.78,7.78,0,0,1,1.92,2,9.21,9.21,0,0,1,1.24,2.71A13,13,0,0,1,443,183.71Zm-5.69,0a7.94,7.94,0,0,0-.39-2.62,4.13,4.13,0,0,0-1.25-1.83,5.62,5.62,0,0,0-2.24-1.08,13.7,13.7,0,0,0-3.38-.36h-7v11.8h7a13.67,13.67,0,0,0,3.38-.36,5.5,5.5,0,0,0,2.24-1.09,4.23,4.23,0,0,0,1.25-1.85,7.94,7.94,0,0,0,.36-2.61h0Z" transform="translate(-218.85 -91.65)"/><path class="cls-2" d="M269.1,202.53v4.25h-1.47v-4.25h-2.3v-1.18h6.08v1.18H269.1Z" transform="translate(-218.85 -91.65)"/><path class="cls-2" d="M275.42,202.53v4.25H274v-4.25h-2.3v-1.18h6.08v1.18h-2.36Z" transform="translate(-218.85 -91.65)"/><path class="cls-2" d="M284.91,205.72a1.85,1.85,0,0,1-.6.63,3.29,3.29,0,0,1-1,.42,6.47,6.47,0,0,1-2.82,0,3.28,3.28,0,0,1-1-.42,1.85,1.85,0,0,1-.6-0.63,1.55,1.55,0,0,1-.2-0.77v-3.6h1.46v3.08a1.88,1.88,0,0,0,.07.52,0.92,0.92,0,0,0,.26.42,1.35,1.35,0,0,0,.54.29,3.12,3.12,0,0,0,.9.11,3.08,3.08,0,0,0,.89-0.11,1.35,1.35,0,0,0,.54-0.29,0.92,0.92,0,0,0,.26-0.42,1.92,1.92,0,0,0,.07-0.52v-3.08h1.47V205A1.55,1.55,0,0,1,284.91,205.72Zm-4.55-4.95v-1.23h1.23v1.23h-1.23Zm1.83,0v-1.23h1.23v1.23h-1.23Z" transform="translate(-218.85 -91.65)"/><path class="cls-2" d="M292.85,202.53v4.25h-1.47v-4.25h-2.3v-1.18h6.08v1.18h-2.31Z" transform="translate(-218.85 -91.65)"/><path class="cls-2" d="M300.19,205.76h-3l-0.51,1H295l2.84-5.43h1.64l2.84,5.43H300.7Zm-2.5-1.06h2l-1-2Z" transform="translate(-218.85 -91.65)"/><path class="cls-2" d="M304.69,206.78h-1.47v-5.43h3.68a3.58,3.58,0,0,1,1,.12,1.78,1.78,0,0,1,.67.35,1.3,1.3,0,0,1,.38.54,2.05,2.05,0,0,1,.12.71,1.7,1.7,0,0,1-.1.6,1.4,1.4,0,0,1-.26.44,1.55,1.55,0,0,1-.38.31,2.6,2.6,0,0,1-.46.21l1.78,2.15h-1.72l-1.64-2h-1.6v2Zm2.9-3.72a0.77,0.77,0,0,0,0-.27,0.37,0.37,0,0,0-.14-0.18,0.73,0.73,0,0,0-.27-0.1,2.44,2.44,0,0,0-.43,0h-2v1.16h2a2.39,2.39,0,0,0,.43,0,0.73,0.73,0,0,0,.27-0.1,0.37,0.37,0,0,0,.14-0.18,0.78,0.78,0,0,0,0-.32h0Z" transform="translate(-218.85 -91.65)"/><path class="cls-2" d="M312.17,203.42l3-2.07h2l-3.66,2.6,3.9,2.83h-2.14l-3.07-2.26v2.26h-1.5v-5.43h1.47v2.07Z" transform="translate(-218.85 -91.65)"/><path class="cls-2" d="M321.88,206.78h-1.71l-2.75-5.43h1.64l2,4.09,2-4.09h1.64Z" transform="translate(-218.85 -91.65)"/><path class="cls-2" d="M329.67,205.76h-3l-0.51,1H324.5l2.84-5.43H329l2.84,5.43H330.2Zm-2.5-1.06h2l-1-2Z" transform="translate(-218.85 -91.65)"/><path class="cls-2" d="M334.18,206.78h-1.47v-5.43h3.68a3.58,3.58,0,0,1,1,.12,1.78,1.78,0,0,1,.67.35,1.3,1.3,0,0,1,.38.54,2.05,2.05,0,0,1,.12.71,1.7,1.7,0,0,1-.1.6,1.4,1.4,0,0,1-.26.44,1.55,1.55,0,0,1-.38.31,2.6,2.6,0,0,1-.46.21l1.78,2.15h-1.72l-1.64-2h-1.6v2Zm2.9-3.72a0.77,0.77,0,0,0,0-.27,0.37,0.37,0,0,0-.14-0.18,0.73,0.73,0,0,0-.27-0.1,2.44,2.44,0,0,0-.43,0h-2v1.16h2a2.39,2.39,0,0,0,.43,0,0.73,0.73,0,0,0,.27-0.1,0.37,0.37,0,0,0,.14-0.18,0.78,0.78,0,0,0,0-.32h0Z" transform="translate(-218.85 -91.65)"/><path class="cls-2" d="M344.55,205.76h-3l-0.51,1H339.4l2.84-5.43h1.64l2.84,5.43h-1.64ZM342,204.7h2l-1-2Z" transform="translate(-218.85 -91.65)"/><path class="cls-2" d="M352,205.76h-3l-0.51,1h-1.64l2.84-5.43h1.64l2.84,5.43h-1.64Zm-2.5-1.06h2l-1-2Z" transform="translate(-218.85 -91.65)"/><path class="cls-2" d="M356.45,206.78H355v-5.43h3.68a3.58,3.58,0,0,1,1,.12,1.78,1.78,0,0,1,.67.35,1.3,1.3,0,0,1,.38.54,2.05,2.05,0,0,1,.12.71,1.7,1.7,0,0,1-.1.6,1.4,1.4,0,0,1-.26.44,1.55,1.55,0,0,1-.38.31,2.6,2.6,0,0,1-.46.21l1.78,2.15H359.7l-1.64-2h-1.6v2Zm2.9-3.72a0.77,0.77,0,0,0,0-.27,0.37,0.37,0,0,0-.14-0.18,0.73,0.73,0,0,0-.27-0.1,2.44,2.44,0,0,0-.43,0h-2v1.16h2a2.39,2.39,0,0,0,.43,0,0.73,0.73,0,0,0,.27-0.1,0.37,0.37,0,0,0,.14-0.18,0.78,0.78,0,0,0,0-.32h0Z" transform="translate(-218.85 -91.65)"/><path class="cls-2" d="M362.46,206.78v-5.43H368v1.16h-4v0.9h3.79v1.16H364v1.06h4v1.16h-5.54Z" transform="translate(-218.85 -91.65)"/><path class="cls-2" d="M374.56,206.78l-3.66-3.73v3.73h-1.47v-5.43H371l3.67,3.75v-3.75h1.46v5.43h-1.57Z" transform="translate(-218.85 -91.65)"/><path class="cls-2" d="M384.5,204.06a3.42,3.42,0,0,1-.11.93,2.37,2.37,0,0,1-.32.71,2.08,2.08,0,0,1-.5.51,2.57,2.57,0,0,1-.65.34,3.91,3.91,0,0,1-.77.18,6.23,6.23,0,0,1-.86.06h-3.45v-5.43h3.44a6.15,6.15,0,0,1,.86.06,3.91,3.91,0,0,1,.77.18,2.64,2.64,0,0,1,.65.33,2,2,0,0,1,.5.51,2.41,2.41,0,0,1,.32.71A3.38,3.38,0,0,1,384.5,204.06Zm-1.48,0a2.07,2.07,0,0,0-.1-0.68,1.07,1.07,0,0,0-.32-0.48,1.46,1.46,0,0,0-.58-0.28,3.55,3.55,0,0,0-.88-0.09h-1.82v3.07h1.82a3.58,3.58,0,0,0,.88-0.09,1.43,1.43,0,0,0,.58-0.28,1.1,1.1,0,0,0,.32-0.48,2.07,2.07,0,0,0,.08-0.69h0Z" transform="translate(-218.85 -91.65)"/><path class="cls-2" d="M392,205.72a1.85,1.85,0,0,1-.6.63,3.29,3.29,0,0,1-1,.42,6.47,6.47,0,0,1-2.82,0,3.28,3.28,0,0,1-1-.42,1.85,1.85,0,0,1-.6-0.63,1.55,1.55,0,0,1-.2-0.77v-3.6h1.46v3.08a1.88,1.88,0,0,0,.07.52,0.92,0.92,0,0,0,.26.42,1.35,1.35,0,0,0,.54.29,3.12,3.12,0,0,0,.9.11,3.08,3.08,0,0,0,.89-0.11,1.35,1.35,0,0,0,.54-0.29,0.92,0.92,0,0,0,.26-0.42,1.92,1.92,0,0,0,.07-0.52v-3.08h1.47V205A1.55,1.55,0,0,1,392,205.72Z" transform="translate(-218.85 -91.65)"/><path class="cls-2" d="M398.91,202.88l-0.41-.17q-0.28-.1-0.57-0.18a6.58,6.58,0,0,0-.7-0.14,5.12,5.12,0,0,0-.77-0.06h-0.54l-0.38.05-0.24.07-0.14.08a0.21,0.21,0,0,0-.06.09,0.32,0.32,0,0,0,.12.29,1.17,1.17,0,0,0,.32.16L396,203.2l0.58,0.13,0.63,0.14a5.79,5.79,0,0,1,.63.18,4.49,4.49,0,0,1,.58.24,2.23,2.23,0,0,1,.48.32,1.38,1.38,0,0,1,.32.42,1.19,1.19,0,0,1,.12.54,1.5,1.5,0,0,1-.14.67,1.44,1.44,0,0,1-.37.47,1.86,1.86,0,0,1-.54.31,3.71,3.71,0,0,1-.64.18,5.29,5.29,0,0,1-.68.08h-0.65a7.87,7.87,0,0,1-1.49-.13,7.46,7.46,0,0,1-1.21-.33v-1.3a5,5,0,0,0,1.24.47,6.22,6.22,0,0,0,1.48.17,4.78,4.78,0,0,0,.76,0,1.87,1.87,0,0,0,.46-0.13,0.53,0.53,0,0,0,.23-0.17,0.32,0.32,0,0,0,.06-0.17,0.29,0.29,0,0,0-.12-0.23,1.1,1.1,0,0,0-.32-0.17,4.08,4.08,0,0,0-.48-0.13l-0.58-.12-0.63-.13q-0.32-.07-0.63-0.17a4.68,4.68,0,0,1-.58-0.23,2.11,2.11,0,0,1-.48-0.3,1.33,1.33,0,0,1-.32-0.41,1.16,1.16,0,0,1-.12-0.54,1.41,1.41,0,0,1,.13-0.62,1.35,1.35,0,0,1,.34-0.44,1.8,1.8,0,0,1,.5-0.3,3.31,3.31,0,0,1,.6-0.18,5.06,5.06,0,0,1,.63-0.09h1.26l0.66,0.09,0.63,0.13,0.56,0.16v1.27Z" transform="translate(-218.85 -91.65)"/><path class="cls-2" d="M400.75,206.78v-5.43h5.5v1.16h-4v0.9H406v1.16h-3.79v1.06h4v1.16h-5.46Z" transform="translate(-218.85 -91.65)"/><path class="cls-2" d="M412.24,203.42l3-2.07h2l-3.66,2.6,3.9,2.83h-2.14l-3.08-2.26v2.26h-1.47v-5.43h1.47Z" transform="translate(-218.85 -91.65)"/><path class="cls-2" d="M418.3,206.78v-5.43h1.47v4.24h4v1.19H418.3Z" transform="translate(-218.85 -91.65)"/><path class="cls-2" d="M431.11,205.72a1.84,1.84,0,0,1-.6.63,3.3,3.3,0,0,1-1,.42,6.47,6.47,0,0,1-2.82,0,3.29,3.29,0,0,1-1-.42,1.84,1.84,0,0,1-.6-0.63,1.54,1.54,0,0,1-.2-0.77v-3.6h1.46v3.08a1.88,1.88,0,0,0,.07.52,0.92,0.92,0,0,0,.26.42,1.35,1.35,0,0,0,.54.29,3.12,3.12,0,0,0,.9.11,3.08,3.08,0,0,0,.89-0.11,1.35,1.35,0,0,0,.54-0.29,0.91,0.91,0,0,0,.26-0.42,1.92,1.92,0,0,0,.07-0.52v-3.08h1.47V205A1.54,1.54,0,0,1,431.11,205.72Z" transform="translate(-218.85 -91.65)"/><path class="cls-2" d="M439.17,205.29a1.63,1.63,0,0,1-.08.55,1.22,1.22,0,0,1-.23.4,1.16,1.16,0,0,1-.36.27,2.12,2.12,0,0,1-.46.17,3.43,3.43,0,0,1-.54.08H433v-5.43h4.34a2.88,2.88,0,0,1,.45.07,1.83,1.83,0,0,1,.4.15,1.07,1.07,0,0,1,.53.62,1.53,1.53,0,0,1,.08.51,1.26,1.26,0,0,1-.26.84,1.35,1.35,0,0,1-.82.41,2.82,2.82,0,0,1,.68.12,1.28,1.28,0,0,1,.46.25,1,1,0,0,1,.26.39A1.59,1.59,0,0,1,439.17,205.29ZM437.34,203a0.62,0.62,0,0,0,0-.2,0.37,0.37,0,0,0-.12-0.16,0.62,0.62,0,0,0-.22-0.11,1.29,1.29,0,0,0-.36,0h-2.16v1h2.16a1.4,1.4,0,0,0,.36,0,0.61,0.61,0,0,0,.22-0.11,0.35,0.35,0,0,0,.12-0.16A0.62,0.62,0,0,0,437.34,203Zm0.34,2.15a0.61,0.61,0,0,0-.06-0.3,0.41,0.41,0,0,0-.2-0.17,1.08,1.08,0,0,0-.35-0.08h-2.63v1.15h2.63a1,1,0,0,0,.35-0.08,0.42,0.42,0,0,0,.2-0.18,0.61,0.61,0,0,0,.06-0.37v0Z" transform="translate(-218.85 -91.65)"/><path class="cls-2" d="M440.5,206.78v-5.43H442v5.43h-1.5Z" transform="translate(-218.85 -91.65)"/><path class="cls-2" d="M256.64,147.43a24.31,24.31,0,0,0,.51,5.15,19.91,19.91,0,0,0,1.56,4.52,23.18,23.18,0,0,0,2.66,4.2,43.07,43.07,0,0,0,3.83,4.2l-6.2,6.68a41,41,0,0,1-5-4.71,28.93,28.93,0,0,1-3.9-5.52,27.88,27.88,0,0,1-2.54-6.59,35.45,35.45,0,0,1,0-15.87A27.89,27.89,0,0,1,250,132.9a28.54,28.54,0,0,1,3.9-5.51,43.55,43.55,0,0,1,5-4.73l6.21,6.69a43,43,0,0,0-3.83,4.2,23.18,23.18,0,0,0-2.66,4.2,19.92,19.92,0,0,0-1.56,4.52A24.31,24.31,0,0,0,256.64,147.43Z" transform="translate(-218.85 -91.65)"/><path class="cls-3" d="M277.16,167.95V126.72H288.3v32.2h30.1v9Z" transform="translate(-218.85 -91.65)"/><path class="cls-3" d="M360.43,160.15h-23l-3.87,7.8H321.15l21.57-41.23h12.42l21.57,41.23H364.3Zm-19-8H356.5L349,136.92Z" transform="translate(-218.85 -91.65)"/><path class="cls-3" d="M429.81,140.79a17.26,17.26,0,0,1-.9,5.69A11,11,0,0,1,426,151a13.72,13.72,0,0,1-5.18,2.93,24.89,24.89,0,0,1-7.74,1.05H394.61v13H383.48V126.72H413.1a25.21,25.21,0,0,1,7.74,1,13.57,13.57,0,0,1,5.18,2.91,11,11,0,0,1,2.9,4.46A17.14,17.14,0,0,1,429.81,140.79Zm-11.25.18a6.78,6.78,0,0,0-.41-2.48,3.69,3.69,0,0,0-1.33-1.7,6.48,6.48,0,0,0-2.43-1,18.32,18.32,0,0,0-3.69-.31H394.61V146.1h16.08a22.52,22.52,0,0,0,3.69-.25,6.3,6.3,0,0,0,2.43-.87,3.46,3.46,0,0,0,1.33-1.61,6.42,6.42,0,0,0,.41-2.37v0Z" transform="translate(-218.85 -91.65)"/><path class="cls-2" d="M446.65,147.43a24.34,24.34,0,0,0-.51-5.15,20,20,0,0,0-1.56-4.52,23.26,23.26,0,0,0-2.66-4.2,43.07,43.07,0,0,0-3.83-4.2l3.75-4.05v-0.06l2.46-2.58a32.64,32.64,0,0,1,4.92,4.59,32.2,32.2,0,0,1,3,4,26.76,26.76,0,0,1,2.31,4.49,29.29,29.29,0,0,1,1.52,5.12,32.51,32.51,0,0,1,.62,5.85v0.75a34,34,0,0,1-.53,6.15,29.53,29.53,0,0,1-1.49,5.33,25.78,25.78,0,0,1-2.34,4.62,32.88,32.88,0,0,1-3.09,4.07,29.7,29.7,0,0,1-2.12,2.18q-1.12,1-2.24,2l-0.28.18a1.83,1.83,0,0,0-.29.24l-2.46-2.58V169.6l-3.75-4.05a43.13,43.13,0,0,0,3.83-4.2,23.26,23.26,0,0,0,2.66-4.2,20,20,0,0,0,1.56-4.52A24.34,24.34,0,0,0,446.65,147.43Z" transform="translate(-218.85 -91.65)"/><path class="cls-2" d="M472,174h-9.2l2.46-16.89h11.07Zm-6.72-25.15v-10.8h11.37v10.8H465.28Z" transform="translate(-218.85 -91.65)"/></svg>