<?xml version="1.0" encoding="utf-8"?>
<!-- Generator: Adobe Illustrator 19.2.1, SVG Export Plug-In . SVG Version: 6.00 Build 0)  -->
<svg version="1.1" id="Layer_1" xmlns="http://www.w3.org/2000/svg" xmlns:xlink="http://www.w3.org/1999/xlink" x="0px" y="0px"
	 viewBox="0 0 283.5 141.7" style="enable-background:new 0 0 283.5 141.7;" xml:space="preserve">
<style type="text/css">
	.st0{fill:#FFFFFF;}
	.st1{fill:#1A181B;}
	.st2{fill:#F0941D;}
</style>
<title>LAP_Logo</title>
<rect y="0" class="st0" width="283.5" height="141.7"/>
<path class="st1" d="M46.8,102.5V81.6h5.6v16.3h15.3v4.6H46.8z"/>
<path class="st1" d="M88.9,98.6H77.3l-2,4H69L80,81.7h6.3l10.9,20.9h-6.3L88.9,98.6z M79.3,94.5h7.6l-3.8-7.7L79.3,94.5z"/>
<path class="st1" d="M122.9,88.8c0,1-0.1,2-0.5,2.9c-0.3,0.9-0.8,1.6-1.5,2.3c-0.8,0.7-1.6,1.2-2.6,1.5c-1.3,0.4-2.6,0.6-3.9,0.5
	H105v6.6h-5.6V81.6h15c1.3,0,2.6,0.1,3.9,0.5c1,0.3,1.9,0.8,2.6,1.5c0.7,0.6,1.2,1.4,1.5,2.3C122.7,86.8,122.9,87.8,122.9,88.8z
	 M117.2,88.8c0-0.4-0.1-0.8-0.2-1.3c-0.1-0.3-0.4-0.6-0.7-0.9c-0.4-0.2-0.8-0.4-1.2-0.5c-0.6-0.1-1.2-0.2-1.9-0.2H105v5.4h8.1
	c0.6,0,1.3,0,1.9-0.1c0.4-0.1,0.9-0.2,1.2-0.4c0.3-0.2,0.5-0.5,0.7-0.8C117.1,89.7,117.2,89.3,117.2,88.8L117.2,88.8L117.2,88.8z"/>
<path class="st1" d="M127.5,102.5V81.6h5.6v20.9H127.5z"/>
<path class="st1" d="M145.4,89.6l11.6-8h7.6l-14.1,10l15,10.9h-8.2l-11.8-8.7v8.7h-5.7V81.6h5.7L145.4,89.6L145.4,89.6z"/>
<path class="st1" d="M192.6,98.4c-0.6,1-1.4,1.8-2.3,2.4c-1.2,0.8-2.5,1.3-3.9,1.6c-3.6,0.8-7.3,0.8-10.9,0
	c-1.4-0.3-2.7-0.9-3.9-1.6c-1-0.6-1.8-1.4-2.3-2.4c-0.5-0.9-0.8-1.9-0.8-3V81.6h5.6v11.8c0,0.7,0.1,1.3,0.3,2c0.2,0.6,0.5,1.2,1,1.6
	c0.6,0.5,1.3,0.9,2.1,1.1c1.1,0.3,2.3,0.4,3.5,0.4c1.2,0,2.3-0.1,3.4-0.4c0.8-0.2,1.5-0.6,2.1-1.1c0.5-0.4,0.8-1,1-1.6
	c0.2-0.7,0.3-1.3,0.3-2V81.6h5.6v13.9C193.4,96.5,193.1,97.5,192.6,98.4z"/>
<path class="st1" d="M224.1,92.1c0,1.2-0.1,2.4-0.4,3.6c-0.3,1-0.7,1.9-1.2,2.7c-0.5,0.8-1.2,1.5-1.9,2c-0.8,0.5-1.6,1-2.5,1.3
	c-1,0.3-2,0.6-3,0.7c-1.1,0.1-2.2,0.2-3.3,0.2h-13.2V81.7h13.2c1.1,0,2.2,0.1,3.3,0.2c1,0.1,2,0.4,3,0.7c0.9,0.3,1.7,0.7,2.5,1.3
	c0.8,0.5,1.4,1.2,1.9,2c0.6,0.8,1,1.7,1.2,2.7C224,89.7,224.2,90.9,224.1,92.1z M218.5,92.1c0-0.9-0.1-1.8-0.4-2.6
	c-0.2-0.7-0.7-1.3-1.3-1.8c-0.7-0.5-1.4-0.9-2.2-1.1c-1.1-0.3-2.2-0.4-3.4-0.4h-7V98h7c1.1,0,2.3-0.1,3.4-0.4
	c0.8-0.2,1.6-0.6,2.2-1.1c0.6-0.5,1-1.1,1.3-1.9C218.3,93.8,218.5,92.9,218.5,92.1L218.5,92.1L218.5,92.1z"/>
<path class="st1" d="M63,111.9v4.3h-1.5v-4.3h-2.3v-1.2h6.1v1.2H63z"/>
<path class="st1" d="M70.3,115.2h-3l-0.5,1h-1.7l2.8-5.4h1.6l2.8,5.4h-1.6L70.3,115.2z M67.8,114.1h2l-1-2L67.8,114.1z"/>
<path class="st1" d="M74.8,116.2h-1.5v-5.4H77c0.3,0,0.7,0,1,0.1c0.2,0.1,0.5,0.2,0.7,0.4c0.2,0.1,0.3,0.3,0.4,0.5
	c0.1,0.2,0.1,0.5,0.1,0.7c0,0.2,0,0.4-0.1,0.6c-0.1,0.2-0.1,0.3-0.3,0.4c-0.1,0.1-0.2,0.2-0.4,0.3c-0.1,0.1-0.3,0.2-0.5,0.2l1.8,2.1
	H78l-1.6-2h-1.6L74.8,116.2L74.8,116.2z M77.7,112.5c0-0.1,0-0.2,0-0.3c0-0.1-0.1-0.1-0.1-0.2c-0.1-0.1-0.2-0.1-0.3-0.1
	c-0.1,0-0.3,0-0.4,0h-2v1.2h2c0.1,0,0.3,0,0.4,0c0.1,0,0.2,0,0.3-0.1c0.1,0,0.1-0.1,0.1-0.2C77.7,112.7,77.7,112.6,77.7,112.5
	L77.7,112.5L77.7,112.5z"/>
<path class="st1" d="M82.3,112.8l3-2.1h2l-3.7,2.6l3.9,2.8h-2.1l-3.1-2.3v2.3h-1.5v-5.4h1.5L82.3,112.8L82.3,112.8z"/>
<path class="st1" d="M92,116.2h-1.7l-2.8-5.4h1.6l2,4.1l2-4.1h1.6L92,116.2z"/>
<path class="st1" d="M99.8,115.2h-3l-0.5,1h-1.7l2.8-5.4h1.7l2.8,5.4h-1.6L99.8,115.2z M97.3,114.1h2l-1-2L97.3,114.1z"/>
<path class="st1" d="M104.3,116.2h-1.5v-5.4h3.7c0.3,0,0.7,0,1,0.1c0.2,0.1,0.5,0.2,0.7,0.4c0.2,0.1,0.3,0.3,0.4,0.5
	c0.1,0.2,0.1,0.5,0.1,0.7c0,0.2,0,0.4-0.1,0.6c-0.1,0.2-0.1,0.3-0.3,0.4c-0.1,0.1-0.2,0.2-0.4,0.3c-0.1,0.1-0.3,0.2-0.5,0.2l1.8,2.1
	h-1.7l-1.6-2h-1.6L104.3,116.2L104.3,116.2z M107.2,112.5c0-0.1,0-0.2,0-0.3c0-0.1-0.1-0.1-0.1-0.2c-0.1-0.1-0.2-0.1-0.3-0.1
	c-0.1,0-0.3,0-0.4,0h-2v1.2h2c0.1,0,0.3,0,0.4,0c0.1,0,0.2,0,0.3-0.1c0.1,0,0.1-0.1,0.1-0.2C107.2,112.7,107.2,112.6,107.2,112.5
	L107.2,112.5L107.2,112.5z"/>
<path class="st1" d="M114.7,115.2h-3l-0.5,1h-1.6l2.8-5.4h1.6l2.8,5.4h-1.6L114.7,115.2z M112.1,114.1h2l-1-2L112.1,114.1z"/>
<path class="st1" d="M122.1,115.2h-3l-0.5,1H117l2.8-5.4h1.6l2.8,5.4h-1.6L122.1,115.2z M119.6,114.1h2l-1-2L119.6,114.1z"/>
<path class="st1" d="M126.6,116.2h-1.5v-5.4h3.7c0.3,0,0.7,0,1,0.1c0.2,0.1,0.5,0.2,0.7,0.4c0.2,0.1,0.3,0.3,0.4,0.5
	c0.1,0.2,0.1,0.5,0.1,0.7c0,0.2,0,0.4-0.1,0.6c-0.1,0.2-0.1,0.3-0.3,0.4c-0.1,0.1-0.2,0.2-0.4,0.3c-0.1,0.1-0.3,0.2-0.5,0.2l1.8,2.1
	h-1.7l-1.6-2h-1.6L126.6,116.2L126.6,116.2z M129.5,112.5c0-0.1,0-0.2,0-0.3c0-0.1-0.1-0.1-0.1-0.2c-0.1-0.1-0.2-0.1-0.3-0.1
	c-0.1,0-0.3,0-0.4,0h-2v1.2h2c0.1,0,0.3,0,0.4,0c0.1,0,0.2,0,0.3-0.1c0.1,0,0.1-0.1,0.1-0.2C129.5,112.7,129.5,112.6,129.5,112.5
	L129.5,112.5L129.5,112.5z"/>
<path class="st1" d="M132.6,116.2v-5.4h5.5v1.2h-4v0.9h3.8v1.2h-3.8v1.1h4v1.2L132.6,116.2L132.6,116.2z"/>
<path class="st1" d="M144.7,116.2l-3.7-3.7v3.7h-1.5v-5.4h1.6l3.7,3.8v-3.8h1.5v5.4H144.7z"/>
<path class="st1" d="M154.6,113.5c0,0.3,0,0.6-0.1,0.9c-0.1,0.3-0.2,0.5-0.3,0.7c-0.1,0.2-0.3,0.4-0.5,0.5c-0.2,0.1-0.4,0.3-0.6,0.3
	c-0.2,0.1-0.5,0.1-0.8,0.2c-0.3,0-0.6,0.1-0.9,0.1H148v-5.4h3.4c0.3,0,0.6,0,0.9,0.1c0.3,0,0.5,0.1,0.8,0.2c0.2,0.1,0.4,0.2,0.6,0.3
	c0.2,0.1,0.4,0.3,0.5,0.5c0.1,0.2,0.3,0.5,0.3,0.7C154.6,112.8,154.6,113.1,154.6,113.5z M153.1,113.5c0-0.2,0-0.5-0.1-0.7
	c-0.1-0.2-0.2-0.4-0.3-0.5c-0.2-0.1-0.4-0.2-0.6-0.3c-0.3-0.1-0.6-0.1-0.9-0.1h-1.8v3.1h1.8c0.3,0,0.6,0,0.9-0.1
	c0.2,0,0.4-0.1,0.6-0.3c0.1-0.1,0.3-0.3,0.3-0.5C153.1,113.9,153.1,113.7,153.1,113.5L153.1,113.5L153.1,113.5z"/>
<path class="st1" d="M162.1,115.1c-0.1,0.3-0.4,0.5-0.6,0.6c-0.3,0.2-0.6,0.3-1,0.4c-0.9,0.2-1.9,0.2-2.8,0c-0.4-0.1-0.7-0.2-1-0.4
	c-0.2-0.2-0.5-0.4-0.6-0.6c-0.1-0.2-0.2-0.5-0.2-0.8v-3.6h1.5v3.1c0,0.2,0,0.4,0.1,0.5c0,0.2,0.1,0.3,0.3,0.4
	c0.2,0.1,0.3,0.2,0.5,0.3c0.3,0.1,0.6,0.1,0.9,0.1c0.3,0,0.6,0,0.9-0.1c0.2-0.1,0.4-0.2,0.5-0.3c0.1-0.1,0.2-0.3,0.3-0.4
	c0-0.2,0.1-0.3,0.1-0.5v-3.1h1.5v3.7C162.3,114.7,162.2,114.9,162.1,115.1z"/>
<path class="st1" d="M169,112.3l-0.4-0.2c-0.2-0.1-0.4-0.1-0.6-0.2c-0.2-0.1-0.5-0.1-0.7-0.1c-0.3,0-0.5-0.1-0.8-0.1H166l-0.4,0.1
	l-0.2,0.1l-0.1,0.1c0,0,0,0.1-0.1,0.1c0,0.1,0,0.2,0.1,0.3c0.1,0.1,0.2,0.1,0.3,0.2l0.5,0.1l0.6,0.1l0.6,0.1c0.2,0,0.4,0.1,0.6,0.2
	c0.2,0.1,0.4,0.1,0.6,0.2c0.2,0.1,0.3,0.2,0.5,0.3c0.1,0.1,0.2,0.3,0.3,0.4c0.1,0.2,0.1,0.4,0.1,0.5c0,0.2,0,0.5-0.1,0.7
	c-0.1,0.2-0.2,0.3-0.4,0.5c-0.2,0.1-0.3,0.2-0.5,0.3c-0.2,0.1-0.4,0.1-0.6,0.2c-0.2,0-0.5,0.1-0.7,0.1h-0.6c-0.5,0-1,0-1.5-0.1
	c-0.4-0.1-0.8-0.2-1.2-0.3v-1.3c0.4,0.2,0.8,0.4,1.2,0.5c0.5,0.1,1,0.2,1.5,0.2c0.3,0,0.5,0,0.8,0c0.2,0,0.3-0.1,0.5-0.1
	c0.1,0,0.2-0.1,0.2-0.2c0,0,0.1-0.1,0.1-0.2c0-0.1,0-0.2-0.1-0.2c-0.1-0.1-0.2-0.1-0.3-0.2c-0.2-0.1-0.3-0.1-0.5-0.1l-0.6-0.1
	l-0.6-0.1c-0.2,0-0.4-0.1-0.6-0.2c-0.2-0.1-0.4-0.1-0.6-0.2c-0.2-0.1-0.3-0.2-0.5-0.3c-0.1-0.1-0.2-0.3-0.3-0.4
	c-0.1-0.2-0.1-0.4-0.1-0.5c0-0.2,0-0.4,0.1-0.6c0.1-0.2,0.2-0.3,0.3-0.4c0.1-0.1,0.3-0.2,0.5-0.3c0.2-0.1,0.4-0.1,0.6-0.2
	c0.2,0,0.4-0.1,0.6-0.1h1.3l0.7,0.1l0.6,0.1l0.6,0.2L169,112.3L169,112.3z"/>
<path class="st1" d="M170.9,116.2v-5.4h5.5v1.2h-4v0.9h3.8v1.2h-3.8v1.1h4v1.2L170.9,116.2L170.9,116.2z"/>
<path class="st1" d="M182.3,112.8l3-2.1h2l-3.7,2.6l3.9,2.8h-2.1l-3.1-2.3v2.3h-1.5v-5.4h1.5L182.3,112.8z"/>
<path class="st1" d="M188.4,116.2v-5.4h1.5v4.2h4v1.2L188.4,116.2L188.4,116.2z"/>
<path class="st1" d="M201.2,115.1c-0.1,0.3-0.4,0.5-0.6,0.6c-0.3,0.2-0.6,0.3-1,0.4c-0.9,0.2-1.9,0.2-2.8,0c-0.4-0.1-0.7-0.2-1-0.4
	c-0.2-0.2-0.5-0.4-0.6-0.6c-0.1-0.2-0.2-0.5-0.2-0.8v-3.6h1.5v3.1c0,0.2,0,0.4,0.1,0.5c0,0.2,0.1,0.3,0.3,0.4
	c0.2,0.1,0.3,0.2,0.5,0.3c0.3,0.1,0.6,0.1,0.9,0.1c0.3,0,0.6,0,0.9-0.1c0.2-0.1,0.4-0.2,0.5-0.3c0.1-0.1,0.2-0.3,0.3-0.4
	c0-0.2,0.1-0.3,0.1-0.5v-3.1h1.5v3.7C201.4,114.7,201.4,114.9,201.2,115.1z"/>
<path class="st1" d="M209.3,114.7c0,0.2,0,0.4-0.1,0.6c-0.1,0.1-0.1,0.3-0.2,0.4c-0.1,0.1-0.2,0.2-0.4,0.3c-0.1,0.1-0.3,0.1-0.5,0.2
	c-0.2,0-0.4,0.1-0.5,0.1h-4.5v-5.4h4.3c0.2,0,0.3,0,0.5,0.1c0.1,0,0.3,0.1,0.4,0.1c0.3,0.1,0.4,0.4,0.5,0.6c0.1,0.2,0.1,0.3,0.1,0.5
	c0,0.3-0.1,0.6-0.3,0.8c-0.2,0.2-0.5,0.4-0.8,0.4c0.2,0,0.5,0.1,0.7,0.1c0.2,0.1,0.3,0.1,0.5,0.3c0.1,0.1,0.2,0.2,0.3,0.4
	C209.3,114.3,209.3,114.5,209.3,114.7z M207.4,112.4c0-0.1,0-0.1,0-0.2c0-0.1-0.1-0.1-0.1-0.2c-0.1-0.1-0.1-0.1-0.2-0.1
	c-0.1,0-0.2,0-0.4,0h-2.2v1h2.2c0.1,0,0.2,0,0.4,0c0.1,0,0.2-0.1,0.2-0.1c0.1,0,0.1-0.1,0.1-0.2
	C207.5,112.6,207.5,112.5,207.4,112.4z M207.8,114.5c0-0.1,0-0.2-0.1-0.3c0-0.1-0.1-0.1-0.2-0.2c-0.1,0-0.2-0.1-0.4-0.1h-2.6v1.1
	h2.6c0.1,0,0.2,0,0.4-0.1c0.1,0,0.2-0.1,0.2-0.2C207.8,114.8,207.8,114.6,207.8,114.5L207.8,114.5L207.8,114.5z"/>
<path class="st1" d="M210.6,116.2v-5.4h1.5v5.4H210.6z"/>
<path class="st1" d="M37.8,55.8c0,1.7,0.2,3.5,0.5,5.1c0.3,1.6,0.9,3.1,1.6,4.5c0.7,1.5,1.6,2.9,2.7,4.2c1.2,1.5,2.5,2.9,3.8,4.2
	l-6.2,6.7c-1.8-1.4-3.5-3-5-4.7c-1.5-1.7-2.8-3.5-3.9-5.5c-1.1-2.1-2-4.3-2.5-6.6c-1.2-5.2-1.2-10.6,0-15.9c0.5-2.3,1.4-4.5,2.4-6.6
	c1.1-2,2.4-3.8,3.9-5.5c1.5-1.7,3.2-3.3,5-4.7l6.2,6.7c-1.4,1.3-2.6,2.7-3.8,4.2c-1,1.3-1.9,2.7-2.7,4.2c-0.7,1.4-1.2,3-1.6,4.5
	C37.9,52.3,37.7,54,37.8,55.8z"/>
<path class="st2" d="M58.3,76.3V35.1h11.1v32.2h30.1v9L58.3,76.3z"/>
<path class="st2" d="M141.6,68.5h-23l-3.9,7.8h-12.4l21.6-41.2h12.4l21.6,41.2h-12.4L141.6,68.5z M122.6,60.5h15.1l-7.5-15.2
	L122.6,60.5z"/>
<path class="st2" d="M211,49.1c0,1.9-0.3,3.9-0.9,5.7c-0.6,1.7-1.6,3.3-2.9,4.5c-1.5,1.3-3.3,2.3-5.2,2.9c-2.5,0.8-5.1,1.1-7.7,1.1
	h-18.5v13h-11.1V35.1h29.6c2.6-0.1,5.2,0.3,7.7,1c1.9,0.6,3.7,1.6,5.2,2.9c1.3,1.2,2.3,2.8,2.9,4.5C210.7,45.3,211,47.2,211,49.1z
	 M199.7,49.3c0-0.8-0.1-1.7-0.4-2.5c-0.3-0.7-0.7-1.3-1.3-1.7c-0.7-0.5-1.6-0.8-2.4-1c-1.2-0.2-2.5-0.3-3.7-0.3h-16.1v10.6h16.1
	c1.2,0,2.5-0.1,3.7-0.3c0.9-0.1,1.7-0.4,2.4-0.9c0.6-0.4,1.1-0.9,1.3-1.6C199.6,51,199.7,50.2,199.7,49.3L199.7,49.3L199.7,49.3z"/>
<path class="st1" d="M227.8,55.8c0-1.7-0.2-3.5-0.5-5.1c-0.3-1.6-0.9-3.1-1.6-4.5c-0.7-1.5-1.6-2.9-2.7-4.2
	c-1.2-1.5-2.5-2.9-3.8-4.2l3.8-4.1v-0.1l2.5-2.6c1.8,1.4,3.4,2.9,4.9,4.6c1.1,1.3,2.1,2.6,3,4c0.9,1.4,1.7,2.9,2.3,4.5
	c0.7,1.7,1.2,3.4,1.5,5.1c0.4,1.9,0.6,3.9,0.6,5.9v0.8c0,2.1-0.2,4.1-0.5,6.1c-0.3,1.8-0.8,3.6-1.5,5.3c-0.6,1.6-1.4,3.2-2.3,4.6
	c-0.9,1.4-2,2.8-3.1,4.1c-0.7,0.8-1.4,1.5-2.1,2.2c-0.7,0.7-1.5,1.3-2.2,2l-0.3,0.2c-0.1,0.1-0.2,0.2-0.3,0.2L223,78v-0.1l-3.8-4.1
	c1.4-1.3,2.6-2.7,3.8-4.2c1-1.3,1.9-2.7,2.7-4.2c0.7-1.4,1.2-3,1.6-4.5C227.6,59.3,227.8,57.5,227.8,55.8z"/>
<path class="st1" d="M253.1,82.3h-9.2l2.5-16.9h11.1L253.1,82.3z M246.4,57.2V46.4h11.4v10.8H246.4z"/>
</svg>
