<?xml version="1.0" encoding="utf-8"?>
<!-- Generator: Adobe Illustrator 16.0.0, SVG Export Plug-In . SVG Version: 6.00 Build 0)  -->
<!DOCTYPE svg PUBLIC "-//W3C//DTD SVG 1.1//EN" "http://www.w3.org/Graphics/SVG/1.1/DTD/svg11.dtd">
<svg version="1.1" id="Layer_2" xmlns="http://www.w3.org/2000/svg" xmlns:xlink="http://www.w3.org/1999/xlink" x="0px" y="0px"
	 width="235.955px" height="29.49px" viewBox="0 0 235.955 29.49" enable-background="new 0 0 235.955 29.49" xml:space="preserve">
<g>
	<path d="M5.117,14.269c0,0.95,0.086,1.825,0.261,2.627c0.173,0.803,0.439,1.571,0.797,2.307c0.357,0.736,0.81,1.45,1.356,2.146
		c0.546,0.694,1.198,1.408,1.953,2.146l-3.171,3.415c-0.94-0.745-1.795-1.547-2.566-2.404c-0.771-0.858-1.436-1.799-1.992-2.819
		c-0.557-1.021-0.989-2.143-1.295-3.362C0.153,17.101,0,15.751,0,14.269c0-1.481,0.153-2.832,0.459-4.052
		c0.306-1.221,0.738-2.342,1.295-3.364C2.31,5.832,2.975,4.895,3.746,4.043c0.771-0.854,1.626-1.658,2.566-2.414l3.171,3.417
		c-0.755,0.734-1.407,1.45-1.953,2.145C6.984,7.885,6.532,8.6,6.175,9.336c-0.358,0.736-0.624,1.504-0.797,2.306
		C5.203,12.444,5.117,13.319,5.117,14.269z"/>
	<path fill="#F0941D" d="M15.597,24.749V3.698h5.685v16.441h15.368v4.61H15.597z"/>
	<path fill="#F0941D" d="M58.115,20.765H46.379l-1.977,3.983h-6.343L49.075,3.698h6.343l11.016,21.051h-6.343L58.115,20.765z
		 M48.417,16.659h7.691l-3.83-7.752L48.417,16.659z"/>
	<path fill="#F0941D" d="M93.539,10.883c0,1.052-0.153,2.021-0.459,2.904c-0.306,0.883-0.8,1.645-1.479,2.283
		c-0.68,0.638-1.561,1.137-2.643,1.493c-1.083,0.357-2.401,0.536-3.953,0.536h-9.438v6.649h-5.685V3.698h15.123
		c1.552,0,2.87,0.176,3.953,0.528c1.082,0.353,1.963,0.848,2.643,1.486c0.678,0.639,1.172,1.397,1.479,2.275
		C93.386,8.866,93.539,9.831,93.539,10.883z M87.793,10.975c0-0.49-0.069-0.911-0.207-1.264c-0.138-0.353-0.365-0.641-0.682-0.866
		c-0.317-0.225-0.73-0.39-1.241-0.497c-0.511-0.109-1.139-0.162-1.885-0.162h-8.212v5.424h8.212c0.746,0,1.374-0.043,1.885-0.13
		c0.511-0.087,0.924-0.235,1.241-0.444c0.317-0.209,0.543-0.483,0.682-0.82C87.724,11.879,87.793,11.466,87.793,10.975z"/>
	<path fill="#F0941D" d="M118.392,24.749v-8.779h-14.465v8.779h-5.685V3.698h5.685v7.661h14.465V3.698h5.684v21.051H118.392z"/>
	<path fill="#F0941D" d="M147.58,20.765h-11.736l-1.978,3.983h-6.343l11.018-21.051h6.342l11.017,21.051h-6.344L147.58,20.765z
		 M137.882,16.659h7.691l-3.832-7.752L137.882,16.659z"/>
	<path fill="#F0941D" d="M180.016,24.135c-0.746,0.246-1.518,0.459-2.314,0.638c-0.796,0.178-1.637,0.313-2.52,0.405
		c-0.885,0.092-1.831,0.137-2.842,0.137c-2.146,0-4.12-0.229-5.923-0.688s-3.355-1.151-4.659-2.075
		c-1.301-0.925-2.314-2.079-3.041-3.464c-0.726-1.384-1.087-3-1.087-4.849c0-1.849,0.361-3.465,1.087-4.849
		c0.727-1.384,1.74-2.538,3.041-3.463c1.304-0.924,2.856-1.616,4.659-2.076s3.776-0.69,5.923-0.69c1.011,0,1.957,0.046,2.842,0.138
		c0.883,0.092,1.724,0.228,2.52,0.406c0.797,0.179,1.568,0.391,2.314,0.636c0.746,0.246,1.486,0.521,2.222,0.828v5.117
		c-0.582-0.316-1.195-0.63-1.839-0.942c-0.645-0.312-1.354-0.592-2.13-0.843c-0.776-0.25-1.631-0.455-2.559-0.613
		c-0.93-0.158-1.977-0.237-3.141-0.237c-1.79,0-3.272,0.184-4.453,0.552c-1.179,0.368-2.121,0.858-2.825,1.471
		c-0.704,0.612-1.199,1.315-1.486,2.106c-0.287,0.792-0.429,1.612-0.429,2.459c0,0.562,0.062,1.117,0.185,1.662
		c0.122,0.547,0.325,1.063,0.612,1.548c0.285,0.486,0.658,0.933,1.118,1.341c0.46,0.409,1.031,0.763,1.716,1.058
		c0.684,0.297,1.482,0.529,2.398,0.698c0.913,0.168,1.968,0.252,3.164,0.252c1.164,0,2.211-0.074,3.141-0.222
		c0.928-0.147,1.782-0.346,2.559-0.591s1.485-0.522,2.13-0.835c0.644-0.312,1.257-0.631,1.839-0.959v5.119
		C181.503,23.615,180.762,23.891,180.016,24.135z"/>
	<path fill="#F0941D" d="M193.253,11.726l11.646-8.028h7.615l-14.173,10.097l15.122,10.954h-8.29L193.253,16v8.749h-5.715V3.698
		h5.715V11.726z"/>
	<path d="M220.649,14.269c0-0.95-0.087-1.826-0.261-2.628c-0.173-0.802-0.438-1.57-0.798-2.306
		c-0.356-0.735-0.808-1.451-1.355-2.145c-0.546-0.695-1.196-1.41-1.952-2.145l1.915-2.069V2.947l1.257-1.318
		c0.929,0.705,1.767,1.486,2.511,2.345c0.563,0.633,1.074,1.308,1.533,2.022c0.46,0.715,0.854,1.478,1.18,2.291
		c0.327,0.812,0.586,1.682,0.773,2.612c0.189,0.93,0.294,1.925,0.314,2.987v0.383c0,1.124-0.089,2.171-0.268,3.141
		c-0.18,0.971-0.432,1.878-0.759,2.72c-0.327,0.844-0.725,1.63-1.194,2.359c-0.469,0.73-0.997,1.423-1.58,2.076
		c-0.346,0.389-0.707,0.758-1.079,1.111c-0.373,0.353-0.753,0.691-1.142,1.019c-0.051,0.031-0.1,0.062-0.145,0.091
		c-0.047,0.031-0.095,0.072-0.146,0.123l-1.257-1.317v-0.03l-1.915-2.067c0.756-0.737,1.406-1.451,1.952-2.146
		c0.548-0.695,0.999-1.409,1.355-2.146c0.359-0.735,0.625-1.504,0.798-2.307C220.562,16.094,220.649,15.219,220.649,14.269z"/>
	<path d="M233.581,27.86h-4.689l1.257-8.626h5.653L233.581,27.86z M230.148,15.02V9.504h5.807v5.516H230.148z"/>
</g>
</svg>
