<?xml version="1.0" encoding="utf-8"?>
<!-- Generator: Adobe Illustrator 16.0.0, SVG Export Plug-In . SVG Version: 6.00 Build 0)  -->
<!DOCTYPE svg PUBLIC "-//W3C//DTD SVG 1.1//EN" "http://www.w3.org/Graphics/SVG/1.1/DTD/svg11.dtd">
<svg version="1.1" id="Layer_1" xmlns="http://www.w3.org/2000/svg" xmlns:xlink="http://www.w3.org/1999/xlink" x="0px" y="0px"
	 width="841.891px" height="595.281px" viewBox="0 0 841.891 595.281" enable-background="new 0 0 841.891 595.281"
	 xml:space="preserve">
<g>
	<path d="M69.834,355.627v19.82h-6.841v-19.82H52.244v-5.514h28.356v5.514H69.834L69.834,355.627z M104.018,370.653H89.894
		l-2.379,4.794h-7.633l13.257-25.334h7.635l13.257,25.334h-7.635L104.018,370.653z M92.346,365.713h9.256l-4.608-9.33
		L92.346,365.713z M125.019,375.447h-6.841v-25.334h17.147c1.844,0,3.404,0.19,4.684,0.571c1.291,0.381,2.335,0.922,3.135,1.623
		c0.812,0.7,1.396,1.549,1.751,2.544c0.369,0.982,0.555,2.084,0.555,3.301c0,1.069-0.154,2.003-0.461,2.803
		c-0.295,0.8-0.701,1.487-1.218,2.064c-0.505,0.564-1.095,1.045-1.771,1.438c-0.676,0.394-1.389,0.72-2.139,0.979l8.297,10.012
		h-8.002l-7.67-9.33h-7.469L125.019,375.447L125.019,375.447z M138.534,358.115c0-0.491-0.067-0.909-0.202-1.254
		c-0.123-0.344-0.345-0.621-0.664-0.83c-0.319-0.221-0.75-0.381-1.291-0.479c-0.528-0.1-1.192-0.147-1.991-0.147h-9.366v5.421h9.366
		c0.799,0,1.463-0.05,1.991-0.146c0.541-0.1,0.972-0.252,1.291-0.461c0.319-0.223,0.541-0.504,0.664-0.85
		C138.466,359.025,138.534,358.607,138.534,358.115L138.534,358.115z M159.942,359.774l14.013-9.661h9.164l-17.057,12.15
		l18.199,13.184h-9.976l-14.345-10.527v10.527h-6.879v-25.334h6.879L159.942,359.774L159.942,359.774z M205.244,375.447h-7.966
		l-12.814-25.334h7.634l9.22,19.064l9.2-19.064h7.634L205.244,375.447z M241.568,370.653h-14.124l-2.378,4.794h-7.635l13.257-25.334
		h7.635l13.257,25.334h-7.633L241.568,370.653z M229.896,365.713h9.257l-4.609-9.33L229.896,365.713z M262.569,375.447h-6.841
		v-25.334h17.147c1.844,0,3.404,0.19,4.683,0.571c1.291,0.381,2.336,0.922,3.136,1.623c0.812,0.7,1.396,1.549,1.752,2.544
		c0.368,0.982,0.553,2.084,0.553,3.301c0,1.069-0.153,2.003-0.461,2.803c-0.295,0.8-0.7,1.487-1.217,2.064
		c-0.504,0.564-1.095,1.045-1.771,1.438c-0.676,0.395-1.389,0.72-2.139,0.979l8.298,10.012h-8.003l-7.67-9.33h-7.468
		L262.569,375.447L262.569,375.447z M276.084,358.115c0-0.491-0.067-0.909-0.203-1.254c-0.123-0.344-0.344-0.621-0.664-0.83
		c-0.319-0.221-0.749-0.381-1.29-0.479c-0.528-0.1-1.191-0.147-1.991-0.147h-9.366v5.421h9.366c0.8,0,1.464-0.05,1.991-0.146
		c0.541-0.1,0.971-0.252,1.29-0.461c0.32-0.223,0.541-0.504,0.664-0.85C276.016,359.025,276.084,358.607,276.084,358.115
		L276.084,358.115z M310.968,370.653h-14.123l-2.379,4.794h-7.633l13.258-25.334h7.633l13.258,25.334h-7.634L310.968,370.653z
		 M299.297,365.713h9.256l-4.608-9.33L299.297,365.713z M345.486,370.653h-14.124l-2.378,4.794h-7.635l13.257-25.334h7.635
		l13.257,25.334h-7.633L345.486,370.653z M333.813,365.713h9.258l-4.61-9.33L333.813,365.713z M366.486,375.447h-6.84v-25.334
		h17.147c1.844,0,3.403,0.19,4.683,0.571c1.291,0.381,2.336,0.922,3.135,1.623c0.813,0.7,1.396,1.549,1.752,2.544
		c0.368,0.982,0.554,2.084,0.554,3.301c0,1.069-0.153,2.003-0.461,2.803c-0.295,0.8-0.7,1.487-1.218,2.064
		c-0.504,0.564-1.094,1.045-1.77,1.438c-0.677,0.395-1.39,0.72-2.14,0.979l8.298,10.012h-8.003l-7.67-9.33h-7.469L366.486,375.447
		L366.486,375.447z M380.002,358.115c0-0.491-0.067-0.909-0.203-1.254c-0.122-0.344-0.344-0.621-0.663-0.83
		c-0.319-0.221-0.75-0.381-1.291-0.479c-0.528-0.1-1.192-0.147-1.991-0.147h-9.366v5.421h9.366c0.799,0,1.463-0.05,1.991-0.146
		c0.541-0.1,0.972-0.252,1.291-0.461c0.319-0.223,0.541-0.504,0.663-0.85C379.934,359.025,380.002,358.607,380.002,358.115
		L380.002,358.115z M394.531,375.447v-25.334h25.647v5.402h-18.622v4.186h17.663v5.402h-17.663v4.941h18.88v5.401L394.531,375.447
		L394.531,375.447z M450.989,375.447l-17.093-17.406v17.406h-6.84v-25.334h7.431l17.11,17.479v-17.479h6.804v25.334H450.989
		L450.989,375.447z M497.398,362.761c0,1.622-0.179,3.065-0.535,4.333c-0.355,1.254-0.859,2.348-1.512,3.282
		c-0.64,0.934-1.414,1.727-2.323,2.378c-0.896,0.65-1.898,1.174-3.006,1.566c-1.104,0.395-2.298,0.684-3.576,0.867
		c-1.277,0.172-2.611,0.258-4.002,0.258h-16.077v-25.334h16.041c1.39,0,2.724,0.092,4.002,0.276
		c1.277,0.172,2.471,0.454,3.576,0.848c1.118,0.395,2.134,0.916,3.042,1.567c0.909,0.64,1.685,1.433,2.323,2.379
		c0.651,0.934,1.155,2.028,1.512,3.282C497.219,359.719,497.398,361.151,497.398,362.761L497.398,362.761z M490.502,362.761
		c0-1.217-0.159-2.274-0.479-3.172c-0.307-0.896-0.811-1.636-1.512-2.212c-0.688-0.591-1.592-1.026-2.71-1.311
		c-1.119-0.295-2.483-0.442-4.094-0.442h-8.5v14.31h8.5c1.609,0,2.975-0.142,4.094-0.425c1.118-0.295,2.021-0.737,2.71-1.327
		c0.701-0.604,1.205-1.354,1.512-2.25C490.342,365.036,490.502,363.978,490.502,362.761z M533.518,366.91
		c0,1.268-0.313,2.459-0.939,3.577c-0.628,1.118-1.567,2.097-2.82,2.933c-1.254,0.836-2.821,1.5-4.702,1.99
		c-1.868,0.479-4.057,0.721-6.564,0.721c-2.507,0-4.708-0.24-6.601-0.721c-1.881-0.49-3.448-1.154-4.702-1.99
		c-1.253-0.836-2.193-1.813-2.82-2.933s-0.939-2.311-0.939-3.577v-16.797h6.822v14.346c0,0.849,0.104,1.652,0.313,2.414
		c0.221,0.75,0.627,1.408,1.217,1.975c0.604,0.564,1.438,1.014,2.508,1.346c1.081,0.332,2.482,0.498,4.204,0.498
		c1.708,0,3.099-0.166,4.167-0.498c1.069-0.332,1.898-0.78,2.489-1.346c0.603-0.565,1.008-1.225,1.217-1.975
		c0.209-0.762,0.313-1.565,0.313-2.414v-14.346h6.841L533.518,366.91L533.518,366.91z M564.642,357.249
		c-0.479-0.233-1.112-0.497-1.898-0.793c-0.786-0.295-1.679-0.571-2.675-0.829c-0.995-0.271-2.077-0.491-3.245-0.664
		c-1.166-0.185-2.365-0.276-3.595-0.276c-0.982,0-1.826,0.031-2.525,0.092c-0.688,0.063-1.272,0.143-1.752,0.24
		c-0.468,0.099-0.843,0.215-1.124,0.351c-0.271,0.123-0.479,0.252-0.627,0.388s-0.246,0.271-0.297,0.405
		c-0.035,0.136-0.055,0.259-0.055,0.368c0,0.369,0.186,0.694,0.553,0.979c0.369,0.271,0.873,0.517,1.513,0.736
		c0.64,0.209,1.383,0.412,2.23,0.608c0.849,0.185,1.745,0.381,2.692,0.59c0.958,0.197,1.94,0.418,2.949,0.664
		c1.021,0.233,2.004,0.511,2.949,0.83c0.959,0.319,1.862,0.694,2.711,1.125c0.849,0.418,1.593,0.909,2.23,1.475
		c0.64,0.565,1.144,1.218,1.513,1.954c0.368,0.738,0.554,1.58,0.554,2.526c0,1.217-0.216,2.262-0.646,3.135
		c-0.43,0.872-1.008,1.61-1.733,2.212c-0.713,0.604-1.542,1.088-2.487,1.457c-0.947,0.356-1.942,0.633-2.987,0.83
		c-1.032,0.196-2.084,0.325-3.153,0.387c-1.057,0.063-2.063,0.093-3.022,0.093c-2.508,0-4.831-0.209-6.97-0.627
		c-2.127-0.405-4.008-0.915-5.644-1.53v-6.048c1.686,0.935,3.604,1.666,5.753,2.193c2.164,0.529,4.476,0.793,6.934,0.793
		c1.45,0,2.631-0.072,3.539-0.221c0.923-0.16,1.643-0.355,2.158-0.591c0.517-0.245,0.866-0.51,1.052-0.792
		c0.184-0.283,0.275-0.554,0.275-0.813c0-0.405-0.185-0.756-0.554-1.051c-0.368-0.308-0.872-0.572-1.512-0.793
		c-0.64-0.232-1.384-0.441-2.23-0.627c-0.849-0.197-1.752-0.388-2.711-0.572c-0.946-0.195-1.924-0.404-2.932-0.626
		c-1.009-0.222-1.991-0.479-2.95-0.773c-0.946-0.309-1.844-0.658-2.691-1.052c-0.849-0.405-1.592-0.88-2.23-1.42
		c-0.64-0.554-1.144-1.187-1.513-1.898c-0.369-0.727-0.554-1.563-0.554-2.508c0-1.118,0.197-2.084,0.591-2.896
		s0.922-1.5,1.585-2.064c0.678-0.578,1.451-1.045,2.323-1.401c0.886-0.355,1.813-0.633,2.784-0.829
		c0.972-0.197,1.955-0.332,2.95-0.406c0.996-0.072,1.941-0.109,2.84-0.109c0.982,0,1.991,0.049,3.022,0.146
		c1.046,0.099,2.071,0.239,3.079,0.425c1.01,0.172,1.979,0.375,2.914,0.607c0.946,0.233,1.819,0.479,2.618,0.737L564.642,357.249
		L564.642,357.249z M573.234,375.447v-25.334h25.647v5.402h-18.622v4.186h17.664v5.402h-17.664v4.941h18.881v5.401L573.234,375.447
		L573.234,375.447z M626.871,359.774l14.014-9.661h9.164l-17.056,12.15l18.197,13.184h-9.975L626.87,364.92v10.527h-6.877v-25.334
		h6.877L626.871,359.774L626.871,359.774z M655.173,375.447v-25.334h6.841v19.784h18.493v5.55H655.173L655.173,375.447z
		 M715.91,366.91c0,1.268-0.314,2.459-0.94,3.577c-0.627,1.118-1.567,2.097-2.821,2.933s-2.82,1.5-4.702,1.99
		c-1.867,0.479-4.057,0.721-6.563,0.721c-2.508,0-4.708-0.24-6.602-0.721c-1.881-0.49-3.447-1.154-4.701-1.99
		s-2.194-1.813-2.821-2.933s-0.94-2.311-0.94-3.577v-16.797h6.822v14.346c0,0.849,0.104,1.652,0.313,2.414
		c0.222,0.75,0.627,1.408,1.217,1.975c0.603,0.564,1.438,1.014,2.508,1.346c1.082,0.332,2.483,0.498,4.204,0.498
		c1.709,0,3.098-0.166,4.167-0.498s1.899-0.78,2.489-1.346c0.603-0.565,1.008-1.225,1.217-1.975
		c0.209-0.762,0.313-1.565,0.313-2.414v-14.346h6.842L715.91,366.91L715.91,366.91z M752.583,368.46
		c0,0.982-0.129,1.838-0.388,2.563c-0.258,0.725-0.62,1.352-1.088,1.88c-0.455,0.518-1.008,0.94-1.659,1.272
		c-0.64,0.318-1.353,0.578-2.139,0.773c-0.775,0.186-1.604,0.313-2.489,0.389c-0.886,0.072-1.801,0.109-2.748,0.109H723.69v-25.334
		h18.052c0.726,0,1.45,0.03,2.176,0.092c0.737,0.063,1.438,0.179,2.103,0.352c0.664,0.159,1.278,0.387,1.844,0.682
		c0.577,0.295,1.075,0.684,1.493,1.162c0.432,0.479,0.764,1.057,0.996,1.733c0.245,0.676,0.368,1.475,0.368,2.396
		c0,1.647-0.405,2.956-1.217,3.928c-0.813,0.96-2.09,1.599-3.835,1.917c1.229,0.088,2.279,0.277,3.152,0.572
		c0.886,0.282,1.604,0.676,2.157,1.18c0.553,0.492,0.958,1.102,1.217,1.825C752.454,366.664,752.583,367.5,752.583,368.46
		L752.583,368.46z M744.046,357.617c0-0.318-0.05-0.62-0.147-0.902c-0.099-0.295-0.275-0.554-0.534-0.774s-0.608-0.399-1.052-0.534
		c-0.441-0.136-1.008-0.203-1.695-0.203h-10.087v4.758h10.087c0.688,0,1.254-0.063,1.695-0.186c0.442-0.123,0.793-0.288,1.052-0.497
		c0.259-0.21,0.437-0.455,0.534-0.738C743.997,358.244,744.046,357.937,744.046,357.617L744.046,357.617z M745.631,367.666
		c0-0.576-0.099-1.037-0.295-1.383c-0.196-0.355-0.504-0.627-0.922-0.812c-0.418-0.196-0.959-0.325-1.622-0.388
		c-0.664-0.062-1.457-0.092-2.379-0.092h-9.884v5.365h9.884c0.922,0,1.715-0.03,2.379-0.092c0.663-0.063,1.204-0.19,1.622-0.389
		c0.418-0.195,0.726-0.467,0.922-0.812C745.532,368.712,745.631,368.244,745.631,367.666L745.631,367.666z M758.796,375.447v-25.334
		h6.841v25.334H758.796L758.796,375.447z"/>
</g>
<g id="Layer_2">
	<g>
		<path d="M18.259,273.067c0,3.391,0.307,6.512,0.93,9.373c0.617,2.864,1.566,5.603,2.843,8.23c1.275,2.627,2.89,5.175,4.838,7.659
			c1.95,2.474,4.275,5.021,6.969,7.655l-11.313,12.185c-3.354-2.659-6.404-5.52-9.155-8.579c-2.751-3.059-5.124-6.418-7.108-10.056
			c-1.986-3.645-3.528-7.648-4.62-11.997C0.546,283.172,0,278.353,0,273.067c0-5.286,0.545-10.104,1.638-14.46s2.632-8.355,4.62-12
			c1.984-3.645,4.357-6.986,7.108-10.028c2.751-3.045,5.801-5.913,9.155-8.613l11.313,12.192c-2.693,2.62-5.019,5.174-6.969,7.655
			c-1.948,2.477-3.559,5.028-4.834,7.651c-1.277,2.627-2.227,5.366-2.843,8.23C18.565,266.554,18.259,269.677,18.259,273.067z"/>
		<path fill="#F0941D" d="M55.651,310.458v-75.109h20.284v58.663h54.832v16.446H55.651z"/>
		<path fill="#F0941D" d="M207.356,296.245H165.48l-7.054,14.209h-22.631l39.306-75.105h22.631l39.306,75.109h-22.633
			L207.356,296.245z M172.752,281.593h27.441l-13.666-27.659L172.752,281.593z"/>
		<path fill="#F0941D" d="M333.748,260.983c0,3.756-0.545,7.212-1.637,10.362c-1.093,3.15-2.855,5.871-5.277,8.146
			c-2.427,2.275-5.57,4.056-9.431,5.328c-3.864,1.272-8.566,1.913-14.104,1.913h-33.675v23.721h-20.284v-75.105h53.959
			c5.538,0,10.241,0.627,14.104,1.885c3.861,1.258,7.004,3.024,9.431,5.299c2.418,2.282,4.181,4.986,5.277,8.119
			C333.203,253.788,333.748,257.23,333.748,260.983z M313.246,261.314c0-1.75-0.246-3.251-0.739-4.513
			c-0.493-1.258-1.301-2.286-2.434-3.087c-1.131-0.805-2.604-1.394-4.427-1.773c-1.824-0.391-4.065-0.579-6.727-0.579h-29.3v19.352
			h29.3c2.662,0,4.903-0.153,6.727-0.463c1.822-0.311,3.296-0.84,4.427-1.586c1.132-0.745,1.937-1.721,2.434-2.927
			C313,264.537,313.246,263.063,313.246,261.314z"/>
		<path fill="#F0941D" d="M422.424,310.458v-31.321h-51.611v31.321h-20.285v-75.109h20.285v27.335h51.611v-27.335h20.28v75.109
			H422.424z"/>
		<path fill="#F0941D" d="M526.567,296.245h-41.872l-7.06,14.209h-22.634l39.313-75.109h22.628l39.308,75.109h-22.635
			L526.567,296.245z M491.963,281.593h27.443l-13.673-27.659L491.963,281.593z"/>
		<path fill="#F0941D" d="M642.3,308.269c-2.662,0.875-5.418,1.638-8.258,2.275c-2.843,0.635-5.84,1.115-8.989,1.446
			c-3.161,0.327-6.537,0.487-10.144,0.487c-7.655,0-14.7-0.818-21.133-2.456c-6.432-1.638-11.972-4.104-16.624-7.401
			c-4.641-3.303-8.254-7.418-10.851-12.362c-2.589-4.937-3.878-10.704-3.878-17.3s1.289-12.362,3.878-17.3
			c2.597-4.941,6.21-9.056,10.851-12.355c4.652-3.3,10.192-5.767,16.624-7.408c6.433-1.641,13.471-2.463,21.133-2.463
			c3.606,0,6.982,0.164,10.144,0.492c3.149,0.331,6.146,0.815,8.989,1.449c2.843,0.638,5.596,1.397,8.258,2.269
			c2.662,0.878,5.3,1.86,7.924,2.955v18.258c-2.077-1.125-4.262-2.248-6.558-3.359c-2.304-1.115-4.833-2.115-7.604-3.01
			c-2.767-0.892-5.818-1.624-9.129-2.185c-3.316-0.564-7.052-0.847-11.205-0.847c-6.391,0-11.677,0.655-15.889,1.968
			c-4.21,1.314-7.568,3.063-10.081,5.248c-2.512,2.185-4.278,4.694-5.3,7.516c-1.024,2.826-1.533,5.752-1.533,8.773
			c0,2.007,0.224,3.986,0.662,5.931c0.433,1.951,1.157,3.791,2.182,5.522c1.018,1.735,2.349,3.328,3.989,4.784
			c1.642,1.46,3.677,2.725,6.122,3.777c2.439,1.059,5.289,1.885,8.558,2.487c3.255,0.6,7.021,0.899,11.29,0.899
			c4.153,0,7.889-0.262,11.205-0.791c3.311-0.523,6.359-1.233,9.129-2.108c2.774-0.875,5.3-1.864,7.604-2.979
			c2.296-1.115,4.48-2.251,6.558-3.421v18.265C647.604,306.412,644.962,307.398,642.3,308.269z"/>
		<path fill="#F0941D" d="M689.528,263.993l41.555-28.645h27.171l-50.572,36.025l53.956,39.084h-29.579l-42.53-31.217v31.217
			h-20.391v-75.109h20.391V263.993z"/>
		<path d="M787.279,273.067c0-3.39-0.313-6.516-0.935-9.376c-0.616-2.864-1.561-5.603-2.847-8.23
			c-1.271-2.62-2.881-5.178-4.832-7.652c-1.952-2.48-4.269-5.031-6.966-7.655l6.833-7.38v-0.104l4.484-4.704
			c3.313,2.516,6.304,5.303,8.958,8.37c2.008,2.258,3.833,4.666,5.471,7.212c1.642,2.551,3.046,5.275,4.209,8.174
			c1.168,2.899,2.091,6.004,2.76,9.321c0.676,3.317,1.049,6.868,1.122,10.659v1.366c0,4.011-0.32,7.746-0.958,11.206
			c-0.645,3.463-1.544,6.7-2.707,9.704c-1.168,3.014-2.586,5.819-4.262,8.419c-1.673,2.606-3.558,5.076-5.638,7.407
			c-1.233,1.387-2.522,2.704-3.851,3.965c-1.331,1.259-2.687,2.464-4.073,3.635c-0.185,0.111-0.358,0.22-0.519,0.324
			c-0.168,0.111-0.339,0.258-0.52,0.438l-4.484-4.7v-0.104l-6.837-7.376c2.701-2.631,5.018-5.178,6.969-7.655
			c1.952-2.481,3.562-5.028,4.833-7.659c1.279-2.62,2.23-5.366,2.847-8.23C786.965,279.579,787.279,276.457,787.279,273.067z"/>
		<path d="M833.418,321.559h-16.731l4.487-30.778h20.168L833.418,321.559z M821.167,275.746v-19.683h20.722v19.683H821.167z"/>
	</g>
</g>
</svg>
