<?xml version="1.0" encoding="UTF-8" standalone="no"?>
<svg
   xmlns:dc="http://purl.org/dc/elements/1.1/"
   xmlns:cc="http://creativecommons.org/ns#"
   xmlns:rdf="http://www.w3.org/1999/02/22-rdf-syntax-ns#"
   xmlns:svg="http://www.w3.org/2000/svg"
   xmlns="http://www.w3.org/2000/svg"
   xmlns:sodipodi="http://sodipodi.sourceforge.net/DTD/sodipodi-0.dtd"
   xmlns:inkscape="http://www.inkscape.org/namespaces/inkscape"
   viewBox="0 0 235.95461 29.490021"
   version="1.1"
   id="svg1008"
   sodipodi:docname="logo_text_laphack.svg"
   width="235.95461"
   height="29.490021"
   inkscape:version="0.92.2 5c3e80d, 2017-08-06">
  <metadata
     id="metadata1014">
    <rdf:RDF>
      <cc:Work
         rdf:about="">
        <dc:format>image/svg+xml</dc:format>
        <dc:type
           rdf:resource="http://purl.org/dc/dcmitype/StillImage" />
        <dc:title></dc:title>
      </cc:Work>
    </rdf:RDF>
  </metadata>
  <defs
     id="defs1012" />
  <sodipodi:namedview
     pagecolor="#ffffff"
     bordercolor="#666666"
     borderopacity="1"
     objecttolerance="10"
     gridtolerance="10"
     guidetolerance="10"
     inkscape:pageopacity="0"
     inkscape:pageshadow="2"
     inkscape:window-width="1280"
     inkscape:window-height="1413"
     id="namedview1010"
     showgrid="false"
     fit-margin-top="0"
     fit-margin-left="0"
     fit-margin-right="0"
     fit-margin-bottom="0"
     inkscape:zoom="1.3561931"
     inkscape:cx="117.9773"
     inkscape:cy="7.4921486"
     inkscape:window-x="0"
     inkscape:window-y="27"
     inkscape:window-maximized="0"
     inkscape:current-layer="g1006" />
  <g
     font-size="10.58333302"
     letter-spacing="0"
     word-spacing="0"
     id="g1006"
     style="font-size:10.58333302px;font-family:Syncopate;letter-spacing:0;word-spacing:0;stroke-width:0.26458332">
    <g
       style="line-height:1.25;-inkscape-font-specification:Syncopate"
       id="g1002">
      <path
         d="m 2.222086,14.21102 q 0,1.94648 0.447863,3.77238 0.4478623,1.8259 1.2574598,3.46232 0.8268229,1.63642 1.9809299,3.03169 1.1541071,1.39526 2.5838217,2.46324 L 7.0796712,28.42204 Q 5.4777018,27.21626 4.1685655,25.66597 2.859429,24.09845 1.929253,22.28977 0.999078,20.46387 0.499539,18.43127 0,16.39866 0,14.21102 0,12.02339 0.499539,9.99078 0.999078,7.95817 1.929253,6.1495 2.859429,4.3236 4.1685655,2.77331 5.4777018,1.22301 7.0796712,0 L 8.4921604,1.4814 Q 7.0624458,2.54937 5.9083387,3.94464 4.7542317,5.3399 3.9274088,6.97632 3.1178113,8.61274 2.669949,10.43864 2.222086,12.26454 2.222086,14.21102 Z"
         font-size="35.27777863"
         id="path996"
         inkscape:connector-curvature="0"
         style="font-size:35.27777863px" />
      <path
         d="M 16.036919,25.99325 V 2.32544 h 2.153185 v 21.65243 h 17.29438 v 2.01538 z m 46.405438,0 -3.255615,-6.23562 H 43.115371 l -3.255616,6.23562 h -2.35989 L 49.884984,2.32544 h 2.532145 L 64.802247,25.99325 Z M 51.159669,4.40973 44.166125,17.7767 h 13.969862 z m 41.35837,5.18487 q 0,1.77422 -0.585666,3.13503 -0.568441,1.36081 -1.808676,2.29099 -1.240234,0.93018 -3.203938,1.41249 -1.946479,0.46509 -4.702556,0.46509 h -10.62812 v 9.09505 H 69.435899 V 2.32544 h 12.781304 q 2.756077,0 4.702556,0.48232 1.963704,0.46508 3.203938,1.37804 1.240235,0.91295 1.808676,2.27376 0.585666,1.36081 0.585666,3.13504 z m -2.222087,0 q 0,-1.6881 -0.568441,-2.72163 Q 89.176296,5.83944 88.004964,5.28823 86.850857,4.71978 85.059407,4.5303 83.285183,4.34082 80.839165,4.34082 h -9.250082 v 10.542 h 9.250082 q 0.947401,0 2.015381,0.0172 1.085205,0 2.135959,-0.10335 1.050754,-0.12058 1.998155,-0.39619 0.964627,-0.29283 1.688097,-0.8785 0.740696,-0.58566 1.171333,-1.53306 0.447862,-0.9474 0.447862,-2.39434 z M 121.66355,25.99325 V 14.52108 H 100.45899 V 25.99325 H 98.305802 V 2.32544 h 2.153188 v 10.19749 h 21.20456 V 2.32544 h 2.15318 v 23.66781 z m 31.79824,0 -3.25562,-6.23562 H 134.1348 l -3.25561,6.23562 H 128.5193 L 140.90442,2.32544 h 2.53214 l 12.38512,23.66781 z M 142.1791,4.40973 135.18556,17.7767 h 13.96986 z m 42.20242,19.70594 q -1.24024,0.51677 -2.46325,0.9474 -1.20578,0.43064 -2.51492,0.7407 -1.30913,0.31006 -2.75607,0.48231 -1.44694,0.17226 -3.15227,0.17226 -2.1015,0 -4.04798,-0.34451 -1.92926,-0.34451 -3.60013,-1.03353 -1.67087,-0.68902 -3.03168,-1.70532 -1.36082,-1.03353 -2.34267,-2.39434 -0.96462,-1.36082 -1.49861,-3.06614 -0.51677,-1.70532 -0.51677,-3.73793 0,-2.0326 0.51677,-3.73793 0.53399,-1.70532 1.49861,-3.06613 0.98185,-1.36081 2.34267,-2.37712 1.36081,-1.03353 3.03168,-1.72255 1.67087,-0.68901 3.60013,-1.03352 1.92925,-0.34451 4.04798,-0.34451 1.70533,0 3.15227,0.17225 1.44694,0.17226 2.75607,0.48231 1.30914,0.31006 2.51492,0.7407 1.22301,0.41341 2.46325,0.93018 v 2.58382 q -0.98186,-0.62012 -2.10151,-1.17133 -1.11966,-0.55122 -2.42879,-0.96463 -1.29192,-0.41341 -2.77331,-0.65457 -1.48139,-0.24116 -3.16948,-0.24116 -3.41065,0 -5.90834,0.7407 -2.4977,0.74069 -4.13412,2.10151 -1.61919,1.34358 -2.41157,3.27284 -0.77514,1.91203 -0.77514,4.28914 0,2.37712 0.77514,4.28915 0.79238,1.91202 2.41157,3.27284 1.63642,1.34358 4.13412,2.08428 2.49769,0.72347 5.90834,0.72347 1.68809,0 3.18671,-0.24116 1.51584,-0.24115 2.82498,-0.65457 1.32636,-0.41341 2.42879,-0.9474 1.11966,-0.55121 2.03261,-1.1541 z M 192.9598,13.47033 210.56424,2.32544 h 2.99723 l -17.34605,11.35159 18.41403,12.31622 h -3.66903 L 192.9598,13.93542 v 12.05783 h -2.18764 V 2.32544 h 2.18764 z"
         id="path998"
         inkscape:connector-curvature="0"
         style="fill:#f0941d" />
      <path
         d="m 225.05087,14.21102 q 0,-1.94648 -0.44786,-3.77238 -0.44786,-1.8259 -1.27468,-3.46232 Q 222.51873,5.3399 221.36462,3.94464 220.21051,2.54937 218.7808,1.4814 L 220.19329,0 q 1.61919,1.22301 2.92833,2.77331 1.30914,1.55029 2.22209,3.37619 0.93017,1.80867 1.42971,3.84128 0.49954,2.03261 0.49954,4.22024 0,2.18764 -0.49954,4.22025 -0.49954,2.0326 -1.42971,3.8585 -0.91295,1.80868 -2.22209,3.3762 -1.30914,1.55029 -2.92833,2.75607 l -1.41249,-1.48139 q 1.42971,-1.06798 2.58382,-2.46324 1.15411,-1.39527 1.96371,-3.03169 0.82682,-1.63642 1.27468,-3.46232 0.44786,-1.8259 0.44786,-3.77238 z m 7.9065,-0.9474 V 9.52569 h 2.99723 v 3.73793 z m 0.80959,16.2264 h -2.08428 l 1.41249,-7.2347 h 2.82498 z"
         font-size="35.27777863"
         id="path1000"
         inkscape:connector-curvature="0"
         style="font-size:35.27777863px" />
    </g>
  </g>
</svg>
