<svg xmlns="http://www.w3.org/2000/svg" viewBox="0 0 235.95461 43.995743">
  <g stroke-width=".26458332" font-size="10.58333302" font-family="Syncopate" letter-spacing="0" word-spacing="0">
    <g style="line-height:1.25;-inkscape-font-specification:Syncopate">
      <path d="M2.222086 14.21102q0 1.94648.447863 3.77238.4478623 1.8259 1.2574598 3.46232.8268229 1.63642 1.9809299 3.03169 1.1541071 1.39526 2.5838217 2.46324l-1.4124892 1.48139q-1.6019694-1.20578-2.9111057-2.75607-1.3091365-1.56752-2.2393125-3.3762-.930175-1.8259-1.429714-3.8585Q0 16.39866 0 14.21102q0-2.18763.499539-4.22024.499539-2.03261 1.429714-3.84128.930176-1.8259 2.2393125-3.37619Q5.4777018 1.22301 7.0796712 0l1.4124892 1.4814Q7.0624458 2.54937 5.9083387 3.94464 4.7542317 5.3399 3.9274088 6.97632q-.8095975 1.63642-1.2574598 3.46232-.447863 1.8259-.447863 3.77238z" font-size="35.27777863"/>
      <path fill="#f0941d" d="M16.0369194 25.99325V2.32544h2.1531847v21.65243H35.484484v2.01538zm46.4054376 0l-3.255615-6.23562H43.115371l-3.255616 6.23562h-2.35989L49.884984 2.32544h2.532145l12.385118 23.66781zM51.159669 4.40973L44.166125 17.7767h13.969862zm41.35837 5.18487q0 1.77422-.585666 3.13503-.568441 1.36081-1.808676 2.29099-1.240234.93018-3.203938 1.41249-1.946479.46509-4.702556.46509h-10.62812v9.09505h-2.153184V2.32544h12.781304q2.756077 0 4.702556.48232 1.963704.46508 3.203938 1.37804 1.240235.91295 1.808676 2.27376.585666 1.36081.585666 3.13504zm-2.222087 0q0-1.6881-.568441-2.72163-.551215-1.03353-1.722547-1.58474-1.154107-.56845-2.945557-.75793-1.774224-.18948-4.220242-.18948h-9.250082v10.542h9.250082q.947401 0 2.015381.0172 1.085205 0 2.135959-.10335 1.050754-.12058 1.998155-.39619.964627-.29283 1.688097-.8785.740696-.58566 1.171333-1.53306.447862-.9474.447862-2.39434zm31.367598 16.39865V14.52108h-21.204563v11.47217h-2.153185V2.32544h2.153185v10.19749h21.204563V2.32544h2.15318v23.66781zm31.79824 0l-3.25562-6.23562H134.1348l-3.25561 6.23562h-2.35989l12.38512-23.66781h2.53214l12.38512 23.66781zM142.1791 4.40973l-6.99354 13.36697h13.96986zm42.20242 19.70594q-1.24024.51677-2.46325.9474-1.20578.43064-2.51492.7407-1.30913.31006-2.75607.48231-1.44694.17226-3.15227.17226-2.1015 0-4.04798-.34451-1.92926-.34451-3.60013-1.03353-1.67087-.68902-3.03168-1.70532-1.36082-1.03353-2.34267-2.39434-.96462-1.36082-1.49861-3.06614-.51677-1.70532-.51677-3.73793 0-2.0326.51677-3.73793.53399-1.70532 1.49861-3.06613.98185-1.36081 2.34267-2.37712 1.36081-1.03353 3.03168-1.72255 1.67087-.68901 3.60013-1.03352 1.92925-.34451 4.04798-.34451 1.70533 0 3.15227.17225 1.44694.17226 2.75607.48231 1.30914.31006 2.51492.7407 1.22301.41341 2.46325.93018v2.58382q-.98186-.62012-2.10151-1.17133-1.11966-.55122-2.42879-.96463-1.29192-.41341-2.77331-.65457-1.48139-.24116-3.16948-.24116-3.41065 0-5.90834.7407-2.4977.74069-4.13412 2.10151-1.61919 1.34358-2.41157 3.27284-.77514 1.91203-.77514 4.28914 0 2.37712.77514 4.28915.79238 1.91202 2.41157 3.27284 1.63642 1.34358 4.13412 2.08428 2.49769.72347 5.90834.72347 1.68809 0 3.18671-.24116 1.51584-.24115 2.82498-.65457 1.32636-.41341 2.42879-.9474 1.11966-.55121 2.03261-1.1541v2.56659zm8.57828-10.64534l17.60444-11.14489h2.99723l-17.34605 11.35159 18.41403 12.31622h-3.66903L192.9598 13.93542v12.05783h-2.18764V2.32544h2.18764z"/>
      <path d="M225.05087 14.21102q0-1.94648-.44786-3.77238t-1.27468-3.46232q-.8096-1.63642-1.96371-3.03168-1.15411-1.39527-2.58382-2.46324L220.19329 0q1.61919 1.22301 2.92833 2.77331 1.30914 1.55029 2.22209 3.37619.93017 1.80867 1.42971 3.84128t.49954 4.22024q0 2.18764-.49954 4.22025-.49954 2.0326-1.42971 3.8585-.91295 1.80868-2.22209 3.3762-1.30914 1.55029-2.92833 2.75607l-1.41249-1.48139q1.42971-1.06798 2.58382-2.46324 1.15411-1.39527 1.96371-3.03169.82682-1.63642 1.27468-3.46232.44786-1.8259.44786-3.77238zm7.9065-.9474V9.52569h2.99723v3.73793zm.80959 16.2264h-2.08428l1.41249-7.2347h2.82498z" font-size="35.27777863"/>
    </g>
    <path d="M7.3923233 38.24933v5.55521H5.4751278v-5.55521H2.462392V36.7042h7.9478349v1.54513zm8.2682286 0v5.55521h-1.91719562v-5.55521H10.7306204V36.7042h7.947835v1.54513zm12.6710601 3.1626q0 .53226-.26355 1.00252-.263549.47025-.790649.82165-.527099.3514-1.317749.55811-.785482.20154-1.839681.20154-1.054199 0-1.850016-.20154-.7906494-.20671-1.317749-.55811-.5270996-.3514-.7906494-.82165-.2635498-.47026-.2635498-1.00252V36.7042h1.9120279v4.02043q0 .35657.08785.67696.093017.31523.3410644.55294.2532145.23771.7027995.37724.4547524.13952 1.1782224.13952.718303 0 1.167888-.13952.449584-.13953.697631-.37724.253215-.23771.341065-.55294.08785-.32039.08785-.67696V36.7042h1.917195v4.70773zm-6.2115067-5.46737v-1.60714h1.6071367v1.60714zm2.3874507 0v-1.60714h1.612305v1.60714zm13.973306 2.30477v5.55521h-1.917195v-5.55521h-3.012736V36.7042h7.947835v1.54513zm9.58081 4.21163h-3.958415l-.666626 1.34358h-2.139404l3.715535-7.10034h2.139404l3.715536 7.10034h-2.139404zm-3.271118-1.38493h2.594156L46.0928 38.4612zm9.157063 2.72851h-1.917195V36.7042h4.805908q.775146 0 1.312581.1602.542603.1602.8785.45475.341064.29456.490926.71314.155029.41341.155029.92501 0 .44958-.129191.78548-.124024.33589-.341065.57877-.211873.23771-.496093.40308-.284221.16536-.599447.27388l2.325439 2.80603h-2.242757l-2.149739-2.61482h-2.092896zm3.787883-4.85758q0-.20671-.05684-.3514-.05168-.14469-.186035-.23254-.134359-.093-.361735-.13436-.222209-.0413-.558106-.0413h-2.625163v1.51928h2.625163q.335897 0 .558106-.0413.227376-.0413.361735-.12919.134358-.093.186035-.23771.05684-.14469.05684-.3514zm5.999636.46509l3.927409-2.70785h2.568319l-4.78007 3.40548 5.100463 3.69486h-2.795694l-4.020427-2.95072v2.95072h-1.927531V36.7042h1.927531zm12.696896 4.39249H74.19961l-3.591512-7.10034h2.139404l2.583822 5.34335 2.578654-5.34335h2.139404zm10.180257-1.34358h-3.958415l-.666626 1.34358h-2.139404l3.715535-7.10034h2.139405l3.715535 7.10034h-2.139404zm-3.271118-1.38493h2.594157l-1.291911-2.61483zm9.157064 2.72851h-1.917196V36.7042h4.805908q.775147 0 1.312581.1602.542603.1602.8785.45475.341064.29456.490926.71314.155029.41341.155029.92501 0 .44958-.129191.78548-.124023.33589-.341064.57877-.211874.23771-.496094.40308-.28422.16536-.599447.27388l2.32544 2.80603H96.74087l-2.14974-2.61482h-2.092895zm3.787882-4.85758q0-.20671-.05684-.3514-.05168-.14469-.186035-.23254-.134359-.093-.361735-.13436-.222209-.0413-.558106-.0413h-2.625162v1.51928h2.625162q.335897 0 .558106-.0413.227376-.0413.361735-.12919.134359-.093.186035-.23771.05684-.14469.05684-.3514zm9.777184 3.514h-3.958415l-.666626 1.34358h-2.139404l3.715535-7.10034h2.139404l3.715536 7.10034h-2.139404zm-3.271119-1.38493h2.594157l-1.29191-2.61483zm12.944948 1.38493h-3.958416l-.666626 1.34358h-2.139404l3.715535-7.10034h2.139401l3.71554 7.10034h-2.13941zm-3.271119-1.38493h2.594159l-1.29191-2.61483zm9.157059 2.72851h-1.91719V36.7042h4.80591q.77514 0 1.31258.1602.5426.1602.8785.45475.34106.29456.49092.71314.15503.41341.15503.92501 0 .44958-.12919.78548-.12402.33589-.34106.57877-.21188.23771-.4961.40308-.28422.16536-.59944.27388l2.32544 2.80603h-2.24276l-2.14974-2.61482h-2.0929zm3.78789-4.85758q0-.20671-.0568-.3514-.0517-.14469-.18603-.23254-.13436-.093-.36174-.13436-.22221-.0413-.5581-.0413h-2.62517v1.51928h2.62517q.33589 0 .5581-.0413.22738-.0413.36174-.12919.13436-.093.18603-.23771.0568-.14469.0568-.3514zm4.0721 4.85758V36.7042h7.18819v1.51412h-5.21932v1.17306h4.95061v1.51412h-4.95061v1.38493h5.29167v1.51411zm15.82333 0l-4.79041-4.87825v4.87825h-1.91719V36.7042h2.08256l4.79557 4.89893V36.7042h1.90686v7.10034zm13.00695-3.55533q0 .68212-.14986 1.21439-.14986.5271-.42375.91984-.26872.39274-.65112.66663-.37724.27388-.84233.43925-.46509.16536-1.00252.24288-.53744.0723-1.12138.0723h-4.50618v-7.10034h4.49584q.58395 0 1.12138.0775.53744.0723 1.00253.23771.47025.16536.85266.43925.3824.26872.65112.66662.27389.39275.42375.91985.14986.52709.14986 1.20406zm-1.9327 0q0-.5116-.13436-.88884-.12919-.37724-.42375-.62012-.28938-.24804-.75964-.3669-.47025-.12402-1.14722-.12402h-2.38228v4.01009h2.38228q.67697 0 1.14722-.11886.47026-.12402.75964-.37207.29456-.25321.42375-.63045.13436-.37724.13436-.88883zm12.05612 1.16272q0 .53226-.26355 1.00252-.26355.47025-.79065.82165-.5271.3514-1.31775.55811-.78548.20154-1.83968.20154t-1.85002-.20154q-.79065-.20671-1.31775-.55811t-.79065-.82165q-.26355-.47026-.26355-1.00252V36.7042h1.91203v4.02043q0 .35657.0879.67696.093.31523.34107.55294.25321.23771.7028.37724.45475.13952 1.17822.13952.7183 0 1.16789-.13952.44958-.13953.69763-.37724.25321-.23771.34106-.55294.0879-.32039.0879-.67696V36.7042h1.9172v4.70773zm8.72297-2.70785q-.20154-.0982-.53227-.22221-.33073-.12402-.74931-.23254-.41858-.11369-.9095-.18604-.49093-.0775-1.00769-.0775-.41341 0-.70797.0258-.28939.0258-.49093.0672-.19637.0413-.31522.0982-.11369.0517-.1757.10852-.062.0568-.0827.11369-.0155.0568-.0155.10335 0 .15503.15503.27389.15503.11369.42375.2067.26872.0879.62528.17054.35657.0775.75448.16536.40308.0827.82682.18604.42892.0982.82683.23254.40307.13436.75964.31523.35657.1757.62528.41341.26872.23771.42375.54777t.15503.70796q0 .5116-.18087.8785-.18087.36691-.48576.62012-.29972.25322-.69763.40824-.39791.14987-.83716.23255-.43408.0827-.88366.10852-.44442.0258-.8475.0258-1.0542 0-1.95337-.1757-.894-.17053-1.58129-.42892v-1.69498q.70796.39274 1.6123.61495.90951.2222 1.94303.2222.60979 0 .99219-.062.38757-.0672.60462-.16536.21704-.10335.29455-.22221.0775-.11886.0775-.22738 0-.17053-.15503-.29455-.15503-.12919-.42375-.22221-.26872-.0982-.62528-.1757-.35657-.0827-.75965-.1602-.39791-.0827-.82165-.1757-.42375-.093-.82683-.21704-.39791-.12919-.75447-.29455-.35657-.17054-.62529-.39791-.26871-.23255-.42374-.53227-.15503-.30489-.15503-.7028 0-.47026.16536-.81132.16537-.34106.44442-.57878.28422-.24287.65112-.39274.37207-.14986.78032-.23254.40824-.0827.82682-.11369.41858-.031.79582-.031.41341 0 .84749.0413.43925.0413.863.11885.42374.0724.81648.17053.39791.0982.73381.20671zm2.40813 5.10046V36.7042h7.18819v1.51412h-5.21932v1.17306h4.9506v1.51412h-4.9506v1.38493h5.29166v1.51411zm15.03267-4.39249l3.92741-2.70785h2.56832l-4.78007 3.40548 5.10047 3.69486h-2.7957l-4.02043-2.95072v2.95072H192.673V36.7042h1.92753zm7.93234 4.39249V36.7042h1.91719v5.54488h5.18315v1.55546zm17.0222-2.39261q0 .53226-.26355 1.00252-.26355.47025-.79065.82165-.5271.3514-1.31774.55811-.78549.20154-1.83969.20154-1.05419 0-1.85001-.20154-.79065-.20671-1.31775-.55811t-.79065-.82165q-.26355-.47026-.26355-1.00252V36.7042h1.91203v4.02043q0 .35657.0879.67696.093.31523.34106.55294.25322.23771.7028.37724.45475.13952 1.17822.13952.71831 0 1.16789-.13952.44959-.13953.69763-.37724.25322-.23771.34107-.55294.0879-.32039.0879-.67696V36.7042h1.91719v4.70773zm10.27845.43408q0 .41341-.10852.7183-.10852.30489-.30489.5271-.1912.21704-.46509.35657-.26872.13436-.59944.21704-.32557.0775-.69764.10852-.37207.031-.76998.031h-5.15214V36.7042h5.05913q.30489 0 .60978.0258.31006.0258.58911.0982.27905.0672.51676.1912.24288.12402.41858.32556.18087.20154.27906.48576.10335.28422.10335.67179 0 .69247-.34107 1.10071-.34106.40308-1.07487.53744.51677.0362.88367.16019.37207.11886.60462.33073.23254.20671.34106.5116.10852.29972.10852.7028zm-2.39262-3.03858q0-.13436-.0413-.25321-.0413-.12402-.14986-.21704-.10852-.093-.29456-.14986-.18603-.0568-.47542-.0568h-2.8267v1.33325h2.8267q.28939 0 .47542-.0517.18604-.0517.29456-.13953.10852-.0879.14986-.2067.0413-.12403.0413-.25839zm.44442 2.81637q0-.24288-.0827-.38757-.0827-.14987-.25838-.22738-.1757-.0827-.45476-.10852-.27905-.0258-.66662-.0258H223.653v1.50379h2.76986q.38757 0 .66662-.0258.27906-.0258.45476-.10852.17569-.0827.25838-.22738.0827-.14986.0827-.39274zm3.68969 2.18074V36.7042h1.9172v7.10034z" style="-inkscape-font-specification:'Syncopate Bold'" font-weight="bold"/>
  </g>
</svg>
