<?xml version="1.0" encoding="UTF-8" standalone="no"?>
<!-- Created with Inkscape (http://www.inkscape.org/) -->

<svg
   xmlns:dc="http://purl.org/dc/elements/1.1/"
   xmlns:cc="http://creativecommons.org/ns#"
   xmlns:rdf="http://www.w3.org/1999/02/22-rdf-syntax-ns#"
   xmlns:svg="http://www.w3.org/2000/svg"
   xmlns="http://www.w3.org/2000/svg"
   xmlns:sodipodi="http://sodipodi.sourceforge.net/DTD/sodipodi-0.dtd"
   xmlns:inkscape="http://www.inkscape.org/namespaces/inkscape"
   width="119.30062mm"
   height="103.84895mm"
   viewBox="0 0 119.30062 103.84895"
   version="1.1"
   id="svg6717"
   inkscape:version="0.92.2 5c3e80d, 2017-08-06"
   sodipodi:docname="logo.svg">
  <defs
     id="defs6711" />
  <sodipodi:namedview
     id="base"
     pagecolor="#ffffff"
     bordercolor="#666666"
     borderopacity="1.0"
     inkscape:pageopacity="0.0"
     inkscape:pageshadow="2"
     inkscape:zoom="1.4142136"
     inkscape:cx="427.69135"
     inkscape:cy="166.05445"
     inkscape:document-units="mm"
     inkscape:current-layer="layer1"
     showgrid="false"
     inkscape:window-width="2560"
     inkscape:window-height="1413"
     inkscape:window-x="0"
     inkscape:window-y="27"
     inkscape:window-maximized="1"
     fit-margin-top="0"
     fit-margin-left="0"
     fit-margin-right="0"
     fit-margin-bottom="0" />
  <metadata
     id="metadata6714">
    <rdf:RDF>
      <cc:Work
         rdf:about="">
        <dc:format>image/svg+xml</dc:format>
        <dc:type
           rdf:resource="http://purl.org/dc/dcmitype/StillImage" />
        <dc:title />
      </cc:Work>
    </rdf:RDF>
  </metadata>
  <g
     inkscape:label="Layer 1"
     inkscape:groupmode="layer"
     id="layer1"
     transform="translate(-29.552069,-50.039811)">
    <g
       id="Layer_3"
       transform="matrix(0.26458333,0,0,0.26458333,26.641652,49.642936)">
      <polygon
         id="XMLID_60_"
         points="273.1,235 233,208.8 187.1,235 233,308.2 " />
      <polygon
         id="XMLID_59_"
         class="st49"
         points="259.8,238 233,218.6 206.5,238 233,232.7 "
         style="fill:#3c413e" />
      <polygon
         id="XMLID_58_"
         class="st50"
         points="36.1,192.5 96.4,293 46.3,323.4 11,220.9 33.1,70.6 47.4,102.9 61.4,115.4 "
         style="fill:#0a709f" />
      <polygon
         id="XMLID_57_"
         class="st51"
         points="96.4,293 233.1,394 46.3,323.4 "
         style="fill:#04516b" />
      <path
         style="fill:#00a4d6"
         d="M 419.8,323.4 452.8,216 433.8,94.5 403.57903,119.44645 429.3,190.9 368.9,293 Z"
         id="XMLID_56_"
         inkscape:connector-curvature="0"
         sodipodi:nodetypes="ccccccc" />
      <polygon
         id="XMLID_55_"
         class="st53"
         points="419.8,323.4 233.1,394 368.9,293 "
         style="fill:#067198" />
      <polygon
         id="XMLID_54_"
         class="st54"
         points="187.1,235 233,308.2 233.1,394 106.7,300.7 130.2,261.2 "
         style="fill:#b3b2b3" />
      <polygon
         id="XMLID_53_"
         class="st55"
         points="273.1,235 233,308.2 233.1,394 361.1,298.9 333.6,258.5 "
         style="fill:#ffffff" />
      <polygon
         id="XMLID_52_"
         class="st56"
         points="106.7,300.7 130.2,261.2 187.1,235 176.5,218.6 61.4,115.4 36.1,192.5 96.4,293 "
         style="fill:#9c94a5" />
      <path
         style="fill:#dcdbd6"
         d="M 368.9,293 429.3,190.9 403.57903,119.44645 284,218.6 273.1,235 l 60.5,23.5 27.5,40.4 z"
         id="XMLID_51_"
         inkscape:connector-curvature="0"
         sodipodi:nodetypes="cccccccc" />
      <g
         id="Layer_4">
        <g
           id="XMLID_79_">
          <path
             id="XMLID_50_"
             class="st58"
             d="m 79.1,187.4 c 0,25 20.3,45.3 45.3,45.3 h 8.7 c 25,0 45.3,-20.3 45.3,-45.3 0,-25 -20.3,-45.3 -45.3,-45.3 h -8.7 c -25,0.1 -45.3,20.3 -45.3,45.3 0,0 0,-25 0,0 z"
             inkscape:connector-curvature="0"
             style="fill:#ee9322" />
        </g>
        <g
           id="XMLID_77_">
          <path
             id="XMLID_49_"
             d="m 101.4,187.4 c 0,15.1 12.2,27.3 27.3,27.3 15.1,0 27.3,-12.2 27.3,-27.3 0,-15.1 -12.2,-27.3 -27.3,-27.3 -15.1,0 -27.3,12.2 -27.3,27.3 0,0 0,-15.1 0,0 z"
             inkscape:connector-curvature="0" />
        </g>
        <g
           id="XMLID_75_">
          <path
             id="XMLID_48_"
             class="st58"
             d="m 291.6,187.4 c 0,25 20.3,45.3 45.3,45.3 h 8.7 c 25,0 45.3,-20.3 45.3,-45.3 0,-25 -20.3,-45.3 -45.3,-45.3 h -8.7 c -25,0.1 -45.3,20.3 -45.3,45.3 0,0 0,-25 0,0 z"
             inkscape:connector-curvature="0"
             style="fill:#ee9322" />
        </g>
        <g
           id="XMLID_73_">
          <path
             id="XMLID_47_"
             d="m 313.9,187.4 c 0,15.1 12.2,27.3 27.3,27.3 15.1,0 27.3,-12.2 27.3,-27.3 0,-15.1 -12.2,-27.3 -27.3,-27.3 -15.1,0 -27.3,12.2 -27.3,27.3 0,0 0,-15.1 0,0 z"
             inkscape:connector-curvature="0" />
        </g>
      </g>
      <g
         id="g3992">
        <path
           sodipodi:nodetypes="cccc"
           inkscape:connector-curvature="0"
           id="XMLID_67_"
           d="M 118.4,115.4 136.6,68.7 11,20.814062 Z"
           style="fill:#10a2da" />
        <polygon
           style="fill:#037299"
           points="461.9,20.9 403.8,41.4 335.9,68.1 353.4,115.4 "
           class="st47"
           id="XMLID_62_" />
        <path
           sodipodi:nodetypes="ccccc"
           inkscape:connector-curvature="0"
           id="XMLID_66_"
           d="M 176.5,218.6 47.4,102.9 11,20.814062 118.4,115.4 Z"
           style="fill:#01496b" />
        <polygon
           style="fill:#06719c"
           points="118.4,115.4 176.5,218.6 187.1,235 233,208.8 233,1.5 154.9,1.5 66.8,42.1 136.6,68.7 "
           class="st45"
           id="XMLID_65_" />
        <polygon
           style="fill:#14a2dc"
           points="353.4,115.4 335.9,68.1 403.8,41.4 313.1,1.5 233,1.5 233,208.8 273.1,235 "
           class="st46"
           id="XMLID_63_" />
        <polygon
           style="fill:#064d69"
           points="284,218.6 433.8,94.5 461.9,20.9 353.4,115.4 "
           class="st48"
           id="XMLID_61_" />
      </g>
    </g>
  </g>
</svg>
